<?xml version="1.0" encoding="UTF-8" standalone="no"?>
<!DOCTYPE svg PUBLIC "-//W3C//DTD SVG 1.1//EN" "http://www.w3.org/Graphics/SVG/1.1/DTD/svg11.dtd">
<svg xmlns="http://www.w3.org/2000/svg" version="1.1" viewBox="0.00 0.00 512.00 512.00">
<rect fill="#198754" x="131.01" y="89.19" width="255.04" height="44.40" rx="0.37"/>
<path fill="#198754" d="
  M 383.80 245.01
  L 383.80 411.33
  Q 383.80 412.95 382.17 412.95
  L 131.48 412.95
  Q 131.00 412.95 131.00 412.48
  L 131.00 247.20
  A 0.80 0.79 80.2 0 0 129.94 246.45
  L 127.71 247.24
  Q 127.32 247.38 127.27 247.79
  L 127.23 248.18
  Q 127.19 248.52 126.86 248.57
  C 117.48 250.15 108.60 248.12 104.81 239.43
  Q 103.23 235.81 103.20 225.87
  Q 103.17 211.56 103.21 197.25
  C 103.21 195.21 104.46 191.92 105.59 189.71
  Q 112.28 176.52 119.39 163.55
  C 122.76 157.40 126.05 150.62 129.50 144.20
  Q 129.74 143.75 130.24 143.70
  Q 134.78 143.22 139.25 143.22
  Q 324.69 143.36 381.25 143.26
  Q 383.53 143.26 385.27 143.75
  A 1.21 1.18 84.0 0 1 386.02 144.37
  C 394.89 161.44 404.49 177.04 411.49 190.55
  Q 412.84 193.17 412.89 197.25
  Q 413.04 211.92 412.99 226.59
  C 412.96 234.52 413.37 239.83 408.47 244.51
  Q 400.98 251.66 390.17 248.23
  Q 389.70 248.08 389.40 247.69
  Q 389.17 247.40 388.89 247.34
  Q 386.75 246.86 384.36 244.76
  Q 383.80 244.27 383.80 245.01
  Z
  M 267.22 347.00
  A 0.72 0.72 0.0 0 1 267.94 347.72
  L 267.93 399.72
  A 0.29 0.29 0.0 0 0 268.22 400.01
  L 276.37 399.99
  Q 276.72 399.99 276.73 399.63
  L 276.98 264.42
  A 0.69 0.69 0.0 0 1 277.50 263.75
  Q 279.96 263.10 282.50 263.10
  Q 309.23 263.17 335.91 263.20
  A 1.00 0.99 0.3 0 1 336.90 264.19
  L 336.91 399.67
  Q 336.91 400.00 337.25 400.00
  L 370.50 400.00
  Q 371.00 400.00 371.00 399.50
  L 371.00 244.43
  A 0.67 0.66 4.6 0 0 370.44 243.78
  L 370.05 243.73
  Q 369.44 243.64 369.22 244.21
  C 368.00 247.51 365.55 246.13 363.62 248.11
  A 1.60 1.59 16.0 0 1 362.80 248.56
  C 359.18 249.32 354.28 249.64 350.89 247.93
  Q 349.93 247.45 348.53 246.96
  C 343.38 245.14 340.95 238.42 339.88 233.56
  A 0.76 0.75 84.1 0 0 339.16 232.97
  L 336.07 232.91
  Q 335.34 232.90 335.30 233.63
  C 333.98 254.93 301.09 253.75 301.97 233.93
  Q 302.01 232.96 301.04 232.97
  L 298.02 233.00
  A 1.20 1.19 -84.8 0 0 296.85 233.98
  C 293.11 254.30 264.86 254.68 262.02 233.61
  Q 261.96 233.11 261.46 233.02
  Q 259.83 232.73 258.27 233.26
  A 1.05 1.04 88.1 0 0 257.59 234.00
  Q 256.46 238.78 255.62 240.36
  C 247.73 255.08 224.51 250.64 222.99 233.80
  A 0.83 0.82 -84.3 0 0 222.41 233.08
  Q 220.93 232.64 219.54 233.20
  Q 219.08 233.39 218.98 233.88
  C 216.81 245.11 207.45 251.35 196.42 248.59
  Q 186.31 246.06 183.92 234.08
  Q 183.80 233.49 183.26 233.23
  Q 181.88 232.59 180.54 233.16
  A 1.11 1.10 -6.2 0 0 179.88 233.97
  Q 177.32 246.85 165.95 248.85
  Q 159.75 249.95 154.79 247.60
  C 148.36 244.57 146.91 239.59 144.51 233.36
  Q 144.00 232.02 143.75 233.44
  Q 143.56 234.60 143.56 236.25
  Q 143.79 291.53 143.75 346.73
  A 0.27 0.27 0.0 0 0 144.02 347.00
  L 170.27 347.00
  A 0.75 0.75 0.0 0 0 171.02 346.24
  C 170.92 340.75 170.42 333.94 172.08 329.17
  C 174.59 321.97 185.19 315.20 192.75 316.30
  C 196.68 316.86 202.02 319.06 204.99 321.73
  C 212.18 328.20 211.32 337.20 210.94 345.91
  A 1.04 1.04 0.0 0 0 211.98 347.00
  L 267.22 347.00
  Z
  M 325.53 344.99
  Q 325.06 343.89 323.86 343.68
  Q 323.36 343.59 323.32 343.08
  Q 323.22 341.98 322.00 341.95
  Q 319.73 341.90 317.45 342.07
  Q 317.09 342.10 316.91 342.27
  Q 316.64 342.51 316.56 342.88
  A 1.00 0.99 -3.3 0 1 315.90 343.61
  Q 314.85 343.97 314.46 344.98
  A 0.80 0.80 0.0 0 1 313.80 345.48
  Q 313.17 345.56 313.06 346.07
  Q 312.36 349.27 313.14 353.29
  Q 313.26 353.90 313.87 353.96
  Q 314.83 354.05 314.81 354.97
  A 0.77 0.76 11.8 0 0 315.29 355.69
  C 316.57 356.23 317.46 356.40 318.68 357.28
  Q 320.70 358.72 322.46 356.62
  Q 322.79 356.23 323.30 356.14
  Q 324.17 356.00 324.94 355.60
  A 0.61 0.60 71.6 0 0 325.25 354.97
  Q 325.20 354.68 325.34 354.40
  Q 325.42 354.23 325.60 354.17
  Q 326.87 353.75 326.99 352.00
  Q 327.18 349.14 326.97 346.25
  Q 326.93 345.71 326.41 345.55
  L 326.00 345.42
  Q 325.66 345.31 325.53 344.99
  Z"
/>
<path fill="#198754" d="
  M 195.92 276.81
  C 194.40 274.03 192.27 270.17 192.43 266.99
  A 0.59 0.58 -88.9 0 1 193.00 266.43
  C 205.00 266.28 212.26 275.88 214.32 286.74
  Q 214.71 288.83 214.32 290.39
  Q 214.19 290.92 213.65 290.82
  C 205.32 289.19 199.76 283.84 195.92 276.81
  Z"
/>
<path fill="#198754" d="
  M 187.59 272.58
  C 183.14 281.65 179.41 287.35 169.54 290.46
  A 0.75 0.75 0.0 0 1 168.57 289.79
  Q 167.96 280.41 174.27 273.23
  C 177.16 269.95 182.95 266.28 187.85 266.73
  A 0.78 0.78 0.0 0 1 188.55 267.41
  Q 188.91 269.90 187.59 272.58
  Z"
/>
<path fill="#198754" d="
  M 177.13 307.27
  Q 171.23 303.14 169.06 295.37
  Q 168.74 294.22 169.79 293.67
  Q 171.98 292.51 174.41 291.46
  C 181.62 288.34 187.03 281.31 190.02 274.20
  Q 190.25 273.66 190.59 274.14
  Q 192.79 277.35 194.84 280.43
  Q 201.17 289.96 211.76 293.74
  Q 213.73 294.44 212.98 296.39
  C 207.21 311.48 190.44 316.59 177.13 307.27
  Z"
/>
</svg>
