<?xml version="1.0" encoding="UTF-8" standalone="no"?>
<!DOCTYPE svg PUBLIC "-//W3C//DTD SVG 1.1//EN" "http://www.w3.org/Graphics/SVG/1.1/DTD/svg11.dtd">
<svg xmlns="http://www.w3.org/2000/svg" version="1.1" viewBox="0.00 0.00 512.00 512.00">
<g stroke-width="2.00" fill="none" stroke-linecap="butt">
<path stroke="#5c937a" vector-effect="non-scaling-stroke" d="
  M 361.90 182.02
  Q 359.51 184.81 356.97 186.36
  C 355.70 187.13 355.43 188.35 353.99 189.23
  C 351.75 190.60 350.83 193.05 348.45 194.06
  A 0.90 0.85 -73.5 0 0 348.28 194.16
  L 302.25 233.21"
/>
<path stroke="#77ae94" vector-effect="non-scaling-stroke" d="
  M 302.25 233.21
  Q 290.51 243.20 278.82 253.31
  C 276.30 255.49 274.11 256.82 271.44 254.56
  Q 259.14 244.14 246.58 233.37"
/>
<path stroke="#5c937a" vector-effect="non-scaling-stroke" d="
  M 246.58 233.37
  L 186.03 180.58"
/>
<path stroke="#bababa" vector-effect="non-scaling-stroke" d="
  M 246.58 233.37
  L 188.03 284.73"
/>
<path stroke="#bababa" vector-effect="non-scaling-stroke" d="
  M 361.91 226.28
  Q 360.97 237.80 361.87 249.21"
/>
<path stroke="#bababa" vector-effect="non-scaling-stroke" d="
  M 360.54 285.43
  C 359.87 283.16 355.14 279.62 353.23 278.18
  Q 350.70 276.27 348.44 274.03
  C 343.94 269.57 338.88 265.86 334.24 261.55
  Q 324.82 252.79 314.92 244.58
  C 310.53 240.93 306.48 237.03 302.25 233.21"
/>
</g>
<rect fill="#198754" x="-18.04" y="-18.07" transform="translate(169.97,101.99) rotate(0.8)" width="36.08" height="36.14" rx="16.44"/>
<path fill="#d4d4d4" d="
  M 210.15 87.83
  Q 210.74 87.31 211.75 87.26
  Q 215.74 87.06 217.00 87.06
  Q 273.81 87.06 330.63 87.28
  C 333.03 87.29 333.78 88.30 335.85 89.25
  C 338.07 90.27 339.00 91.46 340.48 93.19
  C 344.01 97.31 344.36 109.61 339.90 113.27
  Q 339.05 113.97 338.19 114.89
  C 336.17 117.07 333.50 117.98 330.34 117.98
  Q 271.67 118.02 213.00 117.93
  Q 209.44 117.92 206.52 116.14
  C 205.16 115.30 204.13 113.51 202.91 112.11
  C 199.69 108.43 200.06 96.88 203.25 93.26
  C 204.11 92.28 204.56 90.99 205.62 90.27
  Q 207.35 89.08 209.32 88.32
  Q 209.78 88.15 210.15 87.83
  Z"
/>
<path fill="#9f9f9f" d="
  M 120.30 134.29
  Q 119.07 133.57 117.96 132.67
  C 117.01 131.90 116.82 130.86 115.14 130.61
  A 0.72 0.71 88.2 0 1 114.54 130.04
  L 114.32 128.87
  A 1.44 1.43 85.1 0 1 115.76 127.16
  Q 117.28 127.19 118.28 126.38
  Q 119.42 125.45 119.80 125.27
  Q 123.07 123.69 126.20 121.88
  Q 129.06 120.23 132.21 119.18
  Q 133.57 118.73 134.29 119.19
  Q 134.90 119.58 134.90 120.31
  L 134.92 140.46
  A 1.45 1.44 -85.3 0 1 133.24 141.89
  Q 131.61 141.61 130.21 140.74
  Q 129.83 140.50 129.60 140.13
  C 128.86 138.93 127.48 138.84 126.54 138.21
  Q 123.47 136.15 120.30 134.29
  Z"
/>
<circle fill="#9f9f9f" cx="307.77" cy="135.86" r="9.12"/>
<path fill="#198754" d="
  M 361.90 182.02
  Q 359.51 184.81 356.97 186.36
  C 355.70 187.13 355.43 188.35 353.99 189.23
  C 351.75 190.60 350.83 193.05 348.45 194.06
  A 0.90 0.85 -73.5 0 0 348.28 194.16
  L 302.25 233.21
  Q 290.51 243.20 278.82 253.31
  C 276.30 255.49 274.11 256.82 271.44 254.56
  Q 259.14 244.14 246.58 233.37
  L 186.03 180.58
  L 186.35 178.37
  Q 186.43 177.87 186.83 177.58
  Q 187.77 176.90 188.05 174.99
  Q 188.62 170.96 192.99 168.85
  Q 193.38 168.66 193.58 168.20
  Q 193.79 167.74 194.27 167.57
  C 196.12 166.92 197.65 166.01 199.67 166.01
  Q 274.71 165.99 349.75 166.00
  C 351.58 166.00 352.95 166.96 354.70 167.44
  Q 355.11 167.56 355.18 167.98
  Q 355.21 168.16 355.27 168.32
  Q 355.44 168.75 355.88 168.89
  Q 359.15 169.91 359.93 173.19
  Q 360.07 173.76 360.48 174.16
  Q 360.78 174.46 361.17 174.52
  Q 361.66 174.60 361.68 175.10
  L 361.90 182.02
  Z"
/>
<path fill="#9f9f9f" d="
  M 186.03 180.58
  L 246.58 233.37
  L 188.03 284.73
  Q 188.21 282.02 186.87 282.10
  A 0.75 0.74 88.2 0 1 186.08 281.35
  L 186.03 180.58
  Z"
/>
<path fill="#9f9f9f" d="
  M 361.90 182.02
  L 361.91 226.28
  Q 360.97 237.80 361.87 249.21
  Q 361.91 265.77 361.99 282.25
  Q 362.00 284.42 360.54 285.43
  C 359.87 283.16 355.14 279.62 353.23 278.18
  Q 350.70 276.27 348.44 274.03
  C 343.94 269.57 338.88 265.86 334.24 261.55
  Q 324.82 252.79 314.92 244.58
  C 310.53 240.93 306.48 237.03 302.25 233.21
  L 348.28 194.16
  A 0.90 0.85 -73.5 0 1 348.45 194.06
  C 350.83 193.05 351.75 190.60 353.99 189.23
  C 355.43 188.35 355.70 187.13 356.97 186.36
  Q 359.51 184.81 361.90 182.02
  Z"
/>
<path fill="#d4d4d4" d="
  M 361.87 249.21
  Q 360.97 237.80 361.91 226.28
  C 363.41 225.09 364.42 224.44 366.46 223.96
  C 367.58 223.70 368.47 223.05 369.57 223.05
  Q 396.93 222.86 404.50 223.04
  Q 407.75 223.11 411.04 225.05
  C 412.91 226.15 413.45 227.64 414.79 229.33
  C 417.65 232.93 417.36 239.86 416.13 243.92
  C 415.15 247.18 411.17 251.34 407.87 252.40
  Q 406.15 252.96 403.54 252.97
  Q 386.40 253.06 369.26 252.94
  Q 365.86 252.92 361.87 249.21
  Z"
/>
<path fill="#d4d4d4" d="
  M 302.25 233.21
  C 306.48 237.03 310.53 240.93 314.92 244.58
  Q 324.82 252.79 334.24 261.55
  C 338.88 265.86 343.94 269.57 348.44 274.03
  Q 350.70 276.27 353.23 278.18
  C 355.14 279.62 359.87 283.16 360.54 285.43
  C 359.14 289.29 355.82 290.57 352.84 292.40
  A 3.61 3.55 28.7 0 1 350.96 292.93
  L 197.11 292.91
  Q 196.49 292.91 196.25 292.33
  Q 195.75 291.07 194.43 291.01
  Q 193.94 290.98 193.52 290.71
  L 190.27 288.61
  Q 189.81 288.31 189.56 287.81
  L 188.03 284.73
  L 246.58 233.37
  Q 259.14 244.14 271.44 254.56
  C 274.11 256.82 276.30 255.49 278.82 253.31
  Q 290.51 243.20 302.25 233.21
  Z"
/>
<path fill="#198754" d="
  M 396.18 301.54
  Q 394.70 300.82 393.59 299.54
  A 0.28 0.25 75.1 0 0 393.50 299.48
  L 387.98 296.67
  A 1.83 1.82 38.4 0 1 387.63 293.65
  Q 389.81 291.82 393.21 290.70
  Q 393.52 290.60 393.71 290.18
  Q 393.88 289.77 394.28 289.58
  L 402.51 285.61
  Q 403.00 285.37 403.36 284.96
  Q 404.19 284.01 405.55 284.24
  Q 406.00 284.32 406.00 284.77
  L 406.00 305.01
  A 1.13 1.13 0.0 0 1 404.32 306.00
  C 401.48 304.42 399.05 302.93 396.18 301.54
  Z"
/>
<rect fill="#9f9f9f" x="-10.97" y="-11.28" transform="translate(109.11,312.54) rotate(-0.7)" width="21.94" height="22.56" rx="10.03"/>
<path fill="#d4d4d4" d="
  M 144.68 323.51
  Q 144.05 321.96 144.06 320.29
  L 144.09 312.79
  A 0.97 0.96 -18.1 0 1 144.49 312.01
  Q 144.81 311.78 145.09 311.55
  Q 145.32 311.35 145.43 311.04
  Q 148.41 303.04 156.25 303.02
  Q 190.48 302.93 224.71 303.03
  C 231.39 303.05 235.09 302.64 239.28 306.68
  C 240.99 308.33 241.83 310.38 243.00 312.61
  C 245.52 317.44 243.03 325.21 240.13 328.73
  Q 236.63 332.98 231.00 332.98
  Q 194.75 333.02 158.50 332.99
  C 154.46 332.99 149.19 332.12 147.03 328.34
  Q 145.69 325.99 144.68 323.51
  Z"
/>
<circle fill="#198754" cx="261.39" cy="350.72" r="11.13"/>
<path fill="#d4d4d4" d="
  M 333.93 381.70
  C 339.86 384.54 342.71 386.40 344.50 393.50
  Q 345.43 397.18 344.76 399.51
  C 342.74 406.52 339.17 412.03 331.00 412.03
  Q 272.25 412.02 213.50 411.99
  Q 208.38 411.99 205.12 407.44
  C 204.31 406.31 203.80 404.38 202.46 403.03
  A 1.17 1.16 23.2 0 1 202.13 402.22
  L 202.05 392.42
  Q 202.04 391.93 202.31 391.53
  Q 204.10 388.80 205.28 385.73
  C 205.93 384.05 208.85 383.31 210.48 382.67
  Q 210.95 382.49 211.26 382.09
  Q 212.05 381.08 213.75 381.08
  Q 272.31 381.04 330.88 381.09
  Q 332.66 381.09 333.93 381.70
  Z"
/>
</svg>
