<?xml version="1.0" encoding="UTF-8" standalone="no"?>
<!DOCTYPE svg PUBLIC "-//W3C//DTD SVG 1.1//EN" "http://www.w3.org/Graphics/SVG/1.1/DTD/svg11.dtd">
<svg xmlns="http://www.w3.org/2000/svg" version="1.1" viewBox="0.00 0.00 320.00 329.00" width="320.00" height="329.00">
<g stroke-width="5.00" fill="none" stroke-linecap="butt">
<path stroke="#5c937a" vector-effect="non-scaling-stroke" d="
  L 204.35 150.23"
/>
<path stroke="#77ae94" vector-effect="non-scaling-stroke" d="
  M 204.35 150.23
  Q 192.21 160.90 179.64 171.49
  C 177.67 173.15 176.04 173.26 174.09 171.66
  Q 161.00 160.94 149.73 150.36"
/>
<path stroke="#5c937a" vector-effect="non-scaling-stroke" d="
  L 91.02 99.85"
/>
</g>
<path fill="#198754" d="
  M 91.84 20.38
  A 18.87 18.87 0.0 0 1 72.97 39.25
  A 18.87 18.87 0.0 0 1 54.10 20.38
  A 18.87 18.87 0.0 0 1 72.97 1.51
  A 18.87 18.87 0.0 0 1 91.84 20.38
  Z"
/>
<path fill="#d4d4d4" d="
  M 241.38 29.34
  Q 238.72 32.89 233.73 34.03
  C 224.47 36.15 215.22 34.75 205.91 34.86
  C 177.99 35.17 150.05 35.02 122.13 34.97
  C 110.32 34.95 100.21 34.54 98.45 21.35
  C 97.54 14.55 101.33 4.91 109.26 4.38
  Q 113.37 4.11 117.50 4.10
  Q 169.62 4.00 221.75 3.97
  C 226.54 3.96 234.42 3.40 238.30 6.14
  C 246.15 11.70 246.85 22.03 241.38 29.34
  Z"
/>
<path fill="#9f9f9f" d="
  M 37.81 62.45
  L 15.83 47.98
  A 2.10 2.10 0.0 0 1 15.80 44.49
  Q 24.86 38.33 34.35 32.10
  Q 36.60 30.63 38.91 29.86
  A 0.89 0.89 0.0 0 1 40.07 30.71
  L 39.97 61.29
  A 1.39 1.39 0.0 0 1 37.81 62.45
  Z"
/>
<path fill="#9f9f9f" d="
  M 222.2089 53.7335
  A 11.71 11.48 0.8 0 1 210.3397 65.0489
  A 11.71 11.48 0.8 0 1 198.7911 53.4065
  A 11.71 11.48 0.8 0 1 210.6603 42.0911
  A 11.71 11.48 0.8 0 1 222.2089 53.7335
  Z"
/>
<path fill="#198754" d="
  M 262.93 99.56
  L 204.35 150.23
  Q 192.21 160.90 179.64 171.49
  C 177.67 173.15 176.04 173.26 174.09 171.66
  Q 161.00 160.94 149.73 150.36
  L 91.02 99.85
  C 90.95 94.01 89.85 86.00 98.46 86.00
  Q 177.19 85.99 255.93 86.01
  C 263.67 86.01 263.30 93.71 262.93 99.56
  Z"
/>
<path fill="#9f9f9f" d="
  M 262.93 99.56
  L 262.97 200.84
  C 262.42 200.91 261.84 200.93 261.39 200.53
  C 254.68 194.73 248.06 188.54 241.50 182.89
  C 232.76 175.36 224.78 167.93 215.46 160.11
  Q 209.77 155.33 204.35 150.23
  L 262.93 99.56
  Z"
/>
<path fill="#9f9f9f" d="
  M 91.02 99.85
  L 149.73 150.36
  Q 143.37 155.98 136.90 161.44
  C 129.49 167.68 121.88 174.84 114.21 181.39
  C 106.24 188.19 99.15 194.82 91.63 201.55
  Q 91.60 201.57 91.50 201.62
  Q 91.26 201.76 91.20 202.26
  L 91.02 99.85
  Z"
/>
<path fill="#d4d4d4" d="
  M 320.00 151.62
  L 320.00 158.00
  C 319.32 160.06 319.09 162.00 317.70 163.73
  C 314.50 167.74 311.93 170.00 306.66 169.98
  Q 296.55 169.92 286.45 169.97
  Q 277.25 170.02 275.57 169.61
  C 266.56 167.46 264.73 156.39 266.96 148.42
  C 267.30 147.21 269.83 143.55 270.92 142.73
  Q 274.38 140.13 278.25 140.08
  Q 296.61 139.83 306.75 140.01
  C 314.22 140.15 318.20 144.87 320.00 151.62
  Z"
/>
<path fill="#d4d4d4" d="
  M 204.35 150.23
  Q 209.77 155.33 215.46 160.11
  C 224.78 167.93 232.76 175.36 241.50 182.89
  C 248.06 188.54 254.68 194.73 261.39 200.53
  C 261.84 200.93 262.42 200.91 262.97 200.84
  C 262.66 203.42 260.76 206.98 257.69 206.98
  Q 177.22 207.03 96.75 207.01
  C 93.17 207.01 92.89 204.63 91.20 202.26
  Q 91.26 201.76 91.50 201.62
  Q 91.60 201.57 91.63 201.55
  C 99.15 194.82 106.24 188.19 114.21 181.39
  C 121.88 174.84 129.49 167.68 136.90 161.44
  Q 143.37 155.98 149.73 150.36
  Q 161.00 160.94 174.09 171.66
  C 176.04 173.26 177.67 173.15 179.64 171.49
  Q 192.21 160.90 204.35 150.23
  Z"
/>
<path fill="#198754" d="
  M 307.36 228.15
  L 285.30 213.60
  A 1.72 1.72 0.0 0 1 285.29 210.73
  L 307.30 196.11
  A 1.72 1.72 0.0 0 1 309.97 197.54
  L 310.02 226.71
  A 1.72 1.72 0.0 0 1 307.36 228.15
  Z"
/>
<path fill="#9f9f9f" d="
  M 24.11 229.56
  A 11.59 11.59 0.0 0 1 12.52 241.15
  A 11.59 11.59 0.0 0 1 0.93 229.56
  A 11.59 11.59 0.0 0 1 12.52 217.97
  A 11.59 11.59 0.0 0 1 24.11 229.56
  Z"
/>
<path fill="#d4d4d4" d="
  M 146.9216 235.8942
  A 14.02 14.02 0.0 0 1 132.9261 249.9386
  L 51.1662 250.0813
  A 14.02 14.02 0.0 0 1 37.1218 236.0858
  L 37.1184 234.1258
  A 14.02 14.02 0.0 0 1 51.1139 220.0814
  L 132.8738 219.9387
  A 14.02 14.02 0.0 0 1 146.9182 233.9342
  L 146.9216 235.8942
  Z"
/>
<path fill="#9f9f9f" d="
  M 176.2100 267.5904
  A 11.71 11.49 0.1 0 1 164.4799 279.0600
  A 11.71 11.49 0.1 0 1 152.7900 267.5496
  A 11.71 11.49 0.1 0 1 164.5201 256.0800
  A 11.71 11.49 0.1 0 1 176.2100 267.5904
  Z"
/>
<path fill="#d4d4d4" d="
  M 235.63 329.00
  L 117.50 329.00
  C 111.31 327.88 106.53 327.31 103.27 321.26
  C 99.91 315.00 100.18 308.35 104.83 302.67
  Q 108.74 297.92 115.25 297.93
  Q 171.46 298.08 227.67 298.08
  Q 235.88 298.08 239.10 299.58
  Q 244.75 302.20 247.14 309.00
  C 250.00 317.12 244.78 328.01 235.63 329.00
  Z"
/>
</svg>
