<?xml version="1.0" encoding="UTF-8" standalone="no"?>
<!DOCTYPE svg PUBLIC "-//W3C//DTD SVG 1.1//EN" "http://www.w3.org/Graphics/SVG/1.1/DTD/svg11.dtd">
<svg xmlns="http://www.w3.org/2000/svg" version="1.1" viewBox="0.00 0.00 320.00 329.00" width="320.00" height="329.00">
<g stroke-width="5.00" fill="none" stroke-linecap="butt">
<path stroke="#5c937a" vector-effect="non-scaling-stroke" d="
  M 264.94 98.98
  L 262.02 102.32
  A 1.19 1.14 -74.7 0 1 261.38 102.70
  Q 260.14 102.97 259.26 103.77
  Q 258.93 104.07 258.80 104.50
  Q 258.32 106.12 256.74 106.45
  Q 256.27 106.54 255.92 106.86
  C 255.00 107.71 254.47 108.14 253.80 109.39
  C 253.21 110.51 251.66 110.85 250.70 111.54
  C 249.73 112.23 249.66 113.59 248.26 114.24
  C 246.09 115.24 244.53 117.28 242.60 118.71
  C 235.68 123.81 228.19 130.86 222.93 135.22
  Q 213.66 142.91 205.11 150.31"
/>
<path stroke="#77ae94" vector-effect="non-scaling-stroke" d="
  M 205.11 150.31
  L 179.54 171.99
  A 3.56 3.55 45.1 0 1 174.94 171.98
  L 149.75 150.42"
/>
<path stroke="#5c937a" vector-effect="non-scaling-stroke" d="
  M 149.75 150.42
  Q 143.69 145.05 137.16 139.58
  C 129.86 133.48 120.69 125.39 111.37 117.63
  Q 106.28 113.39 89.05 97.61"
/>
<path stroke="#bababa" vector-effect="non-scaling-stroke" d="
  M 149.75 150.42
  Q 144.88 154.51 140.02 158.81
  C 137.15 161.35 133.47 164.08 130.37 166.93
  C 117.48 178.79 104.13 190.16 91.13 201.96"
/>
<path stroke="#bababa" vector-effect="non-scaling-stroke" d="
  M 265.21 143.19
  C 264.81 144.20 264.37 144.89 264.33 146.00
  Q 264.06 155.22 264.48 164.43
  C 264.51 165.10 264.95 165.71 265.23 166.31"
/>
<path stroke="#bababa" vector-effect="non-scaling-stroke" d="
  M 263.61 202.09
  Q 262.09 199.67 259.37 197.99
  C 257.93 197.10 257.09 195.90 255.79 194.90
  Q 254.37 193.80 253.40 192.39
  Q 251.12 189.08 247.57 187.11
  Q 246.69 186.62 245.93 185.84
  C 244.70 184.59 242.78 183.46 241.79 182.58
  C 233.94 175.59 226.74 169.02 218.16 161.75
  Q 211.53 156.14 205.11 150.31"
/>
</g>
<path fill="#198754" d="
  M 91.36 19.00
  A 18.47 18.47 0.0 0 1 72.89 37.47
  A 18.47 18.47 0.0 0 1 54.42 19.00
  A 18.47 18.47 0.0 0 1 72.89 0.53
  A 18.47 18.47 0.0 0 1 91.36 19.00
  Z"
/>
<path fill="#d4d4d4" d="
  M 112.81 5.17
  Q 113.77 4.10 115.25 4.09
  Q 173.56 4.04 231.88 4.24
  C 234.94 4.25 238.30 5.42 240.77 7.36
  C 245.19 10.83 246.64 16.05 246.10 21.60
  C 245.73 25.38 245.11 28.60 242.07 30.90
  Q 241.68 31.20 241.42 31.64
  C 239.89 34.24 234.74 35.25 232.00 35.24
  Q 173.75 34.99 115.50 35.00
  C 113.21 35.00 109.24 33.74 107.81 31.44
  C 106.93 30.03 105.70 29.10 105.05 27.64
  C 103.25 23.63 103.40 15.76 105.03 12.02
  C 105.53 10.85 106.54 10.20 107.21 8.97
  C 108.25 7.05 109.93 6.16 112.00 5.66
  Q 112.48 5.54 112.81 5.17
  Z"
/>
<path fill="#9f9f9f" d="
  M 24.58 51.90
  Q 22.98 50.96 21.42 49.95
  C 20.24 49.20 19.86 47.90 18.08 47.59
  Q 17.58 47.50 17.51 47.00
  L 17.40 46.16
  Q 17.33 45.65 17.75 45.35
  L 19.14 44.39
  Q 19.58 44.09 20.10 43.98
  C 21.27 43.74 21.58 42.93 22.44 42.48
  Q 24.44 41.41 26.49 40.47
  C 29.74 38.99 32.86 36.34 36.85 36.01
  A 0.97 0.96 -2.5 0 1 37.90 36.97
  L 37.92 57.72
  A 1.15 1.15 0.0 0 1 36.76 58.87
  Q 33.98 58.85 32.25 56.74
  A 2.10 2.09 -8.3 0 0 31.44 56.14
  C 28.85 55.06 26.70 53.15 24.58 51.90
  Z"
/>
<path fill="#9f9f9f" d="
  M 219.89 52.87
  A 9.12 9.12 0.0 0 1 210.77 61.99
  A 9.12 9.12 0.0 0 1 201.65 52.87
  A 9.12 9.12 0.0 0 1 210.77 43.75
  A 9.12 9.12 0.0 0 1 219.89 52.87
  Z"
/>
<path fill="#198754" d="
  M 264.94 98.98
  L 262.02 102.32
  A 1.19 1.14 -74.7 0 1 261.38 102.70
  Q 260.14 102.97 259.26 103.77
  Q 258.93 104.07 258.80 104.50
  Q 258.32 106.12 256.74 106.45
  Q 256.27 106.54 255.92 106.86
  C 255.00 107.71 254.47 108.14 253.80 109.39
  C 253.21 110.51 251.66 110.85 250.70 111.54
  C 249.73 112.23 249.66 113.59 248.26 114.24
  C 246.09 115.24 244.53 117.28 242.60 118.71
  C 235.68 123.81 228.19 130.86 222.93 135.22
  Q 213.66 142.91 205.11 150.31
  L 179.54 171.99
  A 3.56 3.55 45.1 0 1 174.94 171.98
  L 149.75 150.42
  Q 143.69 145.05 137.16 139.58
  C 129.86 133.48 120.69 125.39 111.37 117.63
  Q 106.28 113.39 89.05 97.61
  L 89.32 95.42
  Q 89.39 94.83 89.92 94.55
  Q 91.28 93.85 90.98 92.26
  A 1.04 1.01 -38.5 0 1 91.06 91.64
  L 92.74 88.13
  A 1.01 0.97 -2.4 0 1 93.19 87.66
  C 95.00 86.69 96.38 85.11 98.05 84.32
  C 99.46 83.65 100.78 83.00 102.39 83.00
  Q 177.38 83.00 252.37 83.00
  C 254.41 83.00 255.74 83.81 257.62 84.43
  Q 258.07 84.58 258.18 85.05
  Q 258.26 85.39 258.47 85.65
  Q 258.63 85.84 258.98 85.94
  Q 262.09 86.85 262.89 90.28
  Q 263.13 91.29 264.22 91.50
  Q 264.70 91.59 264.72 92.08
  L 264.94 98.98
  Z"
/>
<path fill="#9f9f9f" d="
  M 89.05 97.61
  Q 106.28 113.39 111.37 117.63
  C 120.69 125.39 129.86 133.48 137.16 139.58
  Q 143.69 145.05 149.75 150.42
  Q 144.88 154.51 140.02 158.81
  C 137.15 161.35 133.47 164.08 130.37 166.93
  C 117.48 178.79 104.13 190.16 91.13 201.96
  Q 91.15 199.78 89.71 198.62
  Q 89.29 198.29 89.29 197.75
  L 89.05 97.61
  Z"
/>
<path fill="#9f9f9f" d="
  M 264.94 98.98
  L 265.21 143.19
  C 264.81 144.20 264.37 144.89 264.33 146.00
  Q 264.06 155.22 264.48 164.43
  C 264.51 165.10 264.95 165.71 265.23 166.31
  Q 265.01 166.17 265.00 166.50
  Q 264.88 183.13 264.93 199.74
  Q 264.94 202.17 263.61 202.09
  Q 262.09 199.67 259.37 197.99
  C 257.93 197.10 257.09 195.90 255.79 194.90
  Q 254.37 193.80 253.40 192.39
  Q 251.12 189.08 247.57 187.11
  Q 246.69 186.62 245.93 185.84
  C 244.70 184.59 242.78 183.46 241.79 182.58
  C 233.94 175.59 226.74 169.02 218.16 161.75
  Q 211.53 156.14 205.11 150.31
  Q 213.66 142.91 222.93 135.22
  C 228.19 130.86 235.68 123.81 242.60 118.71
  C 244.53 117.28 246.09 115.24 248.26 114.24
  C 249.66 113.59 249.73 112.23 250.70 111.54
  C 251.66 110.85 253.21 110.51 253.80 109.39
  C 254.47 108.14 255.00 107.71 255.92 106.86
  Q 256.27 106.54 256.74 106.45
  Q 258.32 106.12 258.80 104.50
  Q 258.93 104.07 259.26 103.77
  Q 260.14 102.97 261.38 102.70
  A 1.19 1.14 -74.7 0 0 262.02 102.32
  L 264.94 98.98
  Z"
/>
<path fill="#d4d4d4" d="
  M 320.00 151.63
  L 320.00 158.00
  C 319.33 160.04 319.08 161.97 317.72 163.70
  C 314.69 167.58 312.01 169.95 306.98 169.97
  Q 289.55 170.04 272.13 169.98
  Q 271.63 169.98 271.22 169.71
  C 270.12 169.01 269.06 169.17 268.04 168.60
  Q 266.33 167.65 265.23 166.31
  C 264.95 165.71 264.51 165.10 264.48 164.43
  Q 264.06 155.22 264.33 146.00
  C 264.37 144.89 264.81 144.20 265.21 143.19
  C 267.47 140.97 269.39 141.27 271.64 140.20
  Q 272.08 139.99 272.57 139.99
  Q 289.41 139.99 306.25 140.08
  Q 310.61 140.10 314.31 142.20
  C 317.19 143.82 319.00 148.73 320.00 151.63
  Z"
/>
<path fill="#d4d4d4" d="
  M 149.75 150.42
  L 174.94 171.98
  A 3.56 3.55 45.1 0 0 179.54 171.99
  L 205.11 150.31
  Q 211.53 156.14 218.16 161.75
  C 226.74 169.02 233.94 175.59 241.79 182.58
  C 242.78 183.46 244.70 184.59 245.93 185.84
  Q 246.69 186.62 247.57 187.11
  Q 251.12 189.08 253.40 192.39
  Q 254.37 193.80 255.79 194.90
  C 257.09 195.90 257.93 197.10 259.37 197.99
  Q 262.09 199.67 263.61 202.09
  C 262.29 205.70 260.59 206.92 257.07 208.36
  A 1.50 1.48 4.7 0 0 256.39 208.93
  Q 255.78 209.90 254.50 209.90
  Q 178.63 209.96 102.75 209.84
  Q 101.40 209.84 100.06 209.67
  A 1.14 1.12 -17.8 0 1 99.37 209.32
  Q 98.47 208.38 96.75 207.76
  Q 92.63 206.28 91.13 201.96
  C 104.13 190.16 117.48 178.79 130.37 166.93
  C 133.47 164.08 137.15 161.35 140.02 158.81
  Q 144.88 154.51 149.75 150.42
  Z"
/>
<path fill="#198754" d="
  M 290.56 210.31
  L 307.61 201.38
  A 0.95 0.95 0.0 0 1 309.00 202.22
  L 309.00 222.41
  A 0.95 0.95 0.0 0 1 307.57 223.23
  L 290.65 213.28
  A 0.95 0.95 0.0 0 1 290.19 212.56
  L 290.06 211.25
  A 0.95 0.95 0.0 0 1 290.56 210.31
  Z"
/>
<path fill="#9f9f9f" d="
  M 23.1142 230.6359
  A 10.03 10.03 0.0 0 1 13.2075 240.7877
  L 11.3276 240.8106
  A 10.03 10.03 0.0 0 1 1.1758 230.9039
  L 1.1458 228.4441
  A 10.03 10.03 0.0 0 1 11.0525 218.2923
  L 12.9324 218.2694
  A 10.03 10.03 0.0 0 1 23.0842 228.1761
  L 23.1142 230.6359
  Z"
/>
<path fill="#d4d4d4" d="
  M 47.80 241.67
  Q 47.27 241.50 47.22 240.99
  Q 46.84 236.99 47.17 229.97
  Q 47.19 229.48 47.52 229.11
  C 48.83 227.68 49.15 225.90 50.19 224.61
  Q 53.91 220.00 60.25 219.98
  Q 95.88 219.92 131.50 220.06
  C 136.00 220.07 139.40 220.48 142.50 223.94
  Q 145.65 227.46 146.72 232.26
  C 147.67 236.51 146.39 238.92 144.89 242.66
  C 143.09 247.16 138.79 249.98 134.00 249.98
  Q 97.00 250.02 60.00 249.99
  Q 56.30 249.99 52.50 247.92
  C 50.23 246.68 49.44 244.54 48.47 242.28
  A 1.08 1.06 -2.3 0 0 47.80 241.67
  Z"
/>
<path fill="#198754" d="
  M 175.50 267.71
  A 11.13 11.13 0.0 0 1 164.37 278.84
  A 11.13 11.13 0.0 0 1 153.24 267.71
  A 11.13 11.13 0.0 0 1 164.37 256.58
  A 11.13 11.13 0.0 0 1 175.50 267.71
  Z"
/>
<path fill="#d4d4d4" d="
  M 235.63 329.00
  L 116.27 329.00
  C 110.13 328.11 109.15 325.70 106.11 320.84
  C 104.55 318.34 104.90 313.57 105.08 310.73
  Q 105.21 308.77 106.44 306.60
  Q 107.53 304.69 108.35 302.63
  A 1.85 1.83 82.5 0 1 108.95 301.84
  Q 110.97 300.30 113.46 299.73
  A 1.35 1.33 -78.2 0 0 114.26 299.20
  Q 115.04 298.13 116.37 298.13
  Q 172.03 298.06 227.68 298.08
  Q 235.88 298.08 239.10 299.58
  Q 244.75 302.20 247.14 309.00
  C 250.00 317.12 244.78 328.01 235.63 329.00
  Z"
/>
</svg>
