<?xml version="1.0" encoding="UTF-8" standalone="no"?>
<!DOCTYPE svg PUBLIC "-//W3C//DTD SVG 1.1//EN" "http://www.w3.org/Graphics/SVG/1.1/DTD/svg11.dtd">
<svg xmlns="http://www.w3.org/2000/svg" version="1.1" viewBox="0.00 0.00 512.00 512.00">
<path fill="#198754" d="
  M 305.74 90.05
  Q 306.44 90.29 307.01 90.71
  Q 318.91 99.49 327.67 111.38
  Q 328.33 112.28 329.27 114.26
  C 329.57 114.90 330.55 115.62 331.01 116.46
  Q 336.00 125.57 337.39 129.09
  Q 342.73 142.62 343.50 152.76
  Q 344.67 168.15 343.79 175.76
  C 342.74 184.78 339.37 196.36 335.06 207.59
  C 330.44 219.58 323.99 231.82 317.85 242.77
  C 314.72 248.36 311.43 254.87 308.75 259.72
  Q 288.72 295.98 268.41 332.09
  Q 264.76 338.59 260.92 344.99
  C 259.86 346.75 258.75 349.55 256.82 351.53
  Q 256.48 351.87 256.17 351.51
  C 255.40 350.62 254.79 350.00 254.33 348.86
  C 252.82 345.17 250.10 341.71 248.27 338.16
  Q 246.65 335.00 246.23 334.27
  Q 224.89 296.63 204.16 258.65
  Q 202.75 256.08 201.32 253.52
  Q 192.27 237.41 183.86 220.96
  Q 183.15 219.56 182.15 217.13
  C 181.13 214.67 179.78 212.51 179.08 209.95
  C 178.21 206.75 176.71 204.33 175.98 201.48
  C 175.17 198.36 173.75 196.03 173.24 193.28
  C 172.26 188.02 170.02 183.04 169.86 177.75
  Q 169.48 165.38 169.79 153.00
  Q 169.92 147.40 171.42 142.93
  C 172.63 139.30 172.93 136.04 174.52 132.62
  C 175.69 130.10 176.12 127.30 177.68 124.97
  C 179.09 122.86 179.55 120.58 181.18 118.50
  C 181.96 117.50 182.22 116.38 182.98 115.24
  C 192.58 100.83 206.92 87.30 223.19 81.16
  C 225.18 80.41 226.91 79.26 228.88 78.70
  C 232.42 77.69 236.02 76.27 239.45 75.65
  C 247.12 74.24 257.35 72.99 265.03 74.48
  C 269.65 75.38 273.81 75.16 278.33 76.88
  Q 280.20 77.59 282.84 78.21
  C 285.73 78.87 287.99 80.36 290.84 81.37
  C 292.88 82.09 294.34 83.40 296.31 84.20
  C 299.13 85.36 301.20 87.03 303.86 88.39
  C 304.46 88.70 304.58 89.00 304.97 89.50
  A 1.73 1.66 79.3 0 0 305.74 90.05
  Z
  M 242.57 128.10
  Q 233.97 131.60 228.11 138.82
  C 227.09 140.08 226.31 141.72 225.30 143.13
  C 223.61 145.49 223.13 147.89 221.79 150.37
  Q 221.03 151.79 220.89 153.31
  C 220.65 155.96 220.02 158.80 219.95 161.12
  C 219.66 170.41 222.43 178.38 227.21 185.03
  Q 232.62 192.56 241.83 196.70
  C 246.45 198.78 250.23 199.19 255.20 199.76
  C 258.12 200.10 260.87 199.32 263.37 199.11
  Q 267.61 198.76 270.99 196.91
  C 272.63 196.01 274.59 195.67 276.13 194.27
  C 277.23 193.29 278.43 192.96 279.42 192.16
  C 306.86 170.06 292.27 125.98 257.02 124.99
  Q 255.00 124.93 252.02 125.50
  C 249.65 125.95 246.91 125.95 244.74 127.08
  Q 243.49 127.73 242.57 128.10
  Z"
/>
<path fill="#198754" d="
  M 87.38 371.21
  C 82.21 359.34 95.73 348.14 104.64 343.64
  Q 106.39 342.75 107.45 342.14
  C 109.69 340.86 111.81 340.23 113.98 339.12
  Q 115.94 338.12 117.67 337.53
  C 121.13 336.35 123.98 334.98 127.80 333.91
  C 130.10 333.27 132.18 332.15 134.46 331.68
  Q 138.20 330.91 141.86 329.84
  Q 146.14 328.58 150.78 327.70
  C 154.85 326.93 158.75 325.64 162.79 325.10
  C 169.30 324.21 175.75 322.65 182.12 321.97
  C 191.63 320.95 200.87 319.03 210.53 318.89
  C 215.31 318.82 221.70 317.80 227.43 318.29
  Q 227.60 318.31 227.60 318.48
  L 227.60 318.49
  Q 227.59 318.66 227.42 318.67
  C 224.65 318.87 222.05 318.85 219.22 319.32
  C 215.40 319.97 211.66 319.71 207.90 320.58
  C 206.19 320.98 204.30 320.85 202.71 321.13
  C 198.51 321.87 193.99 322.09 190.13 322.78
  C 176.35 325.24 167.31 327.02 155.09 330.73
  Q 143.57 334.23 133.92 339.92
  C 130.88 341.71 126.45 344.60 124.27 347.74
  C 123.43 348.96 122.42 349.95 121.90 351.29
  Q 119.61 357.23 122.36 361.90
  C 127.93 371.39 143.86 377.93 153.27 380.93
  C 167.37 385.41 181.60 388.05 196.17 390.46
  C 199.21 390.97 202.79 390.97 206.11 391.54
  C 208.38 391.92 211.56 391.98 214.17 392.61
  C 217.32 393.36 220.59 392.86 223.83 393.29
  Q 228.23 393.87 230.23 393.91
  Q 257.24 394.50 284.24 393.92
  Q 286.32 393.87 291.71 393.22
  C 295.10 392.81 298.39 393.07 301.72 392.49
  C 309.98 391.06 318.41 390.98 326.67 389.16
  Q 328.82 388.69 331.57 388.18
  Q 337.81 387.04 350.52 384.07
  C 362.67 381.23 389.22 372.65 393.29 359.27
  C 397.51 345.44 373.43 335.38 364.00 332.22
  C 346.28 326.30 327.97 322.71 309.40 320.87
  Q 309.17 320.85 304.80 320.12
  C 302.76 319.78 300.59 320.02 298.58 319.66
  Q 292.71 318.62 286.74 318.77
  Q 286.53 318.77 286.51 318.56
  L 286.51 318.55
  Q 286.50 318.34 286.71 318.32
  Q 291.01 317.95 295.29 318.33
  Q 301.34 318.88 303.75 318.89
  C 312.54 318.95 321.17 320.59 329.87 321.62
  C 337.09 322.47 344.13 323.85 351.29 324.99
  C 356.04 325.75 361.05 327.14 366.00 328.03
  C 370.03 328.75 373.50 330.27 377.42 331.00
  C 381.29 331.72 384.64 333.24 388.56 334.30
  C 390.62 334.86 392.83 335.95 394.49 336.56
  C 404.88 340.38 415.62 345.57 423.25 353.82
  C 433.30 364.69 427.11 376.24 417.06 383.51
  C 415.87 384.37 413.50 385.25 412.04 386.85
  Q 411.70 387.21 411.23 387.36
  Q 409.25 387.97 407.56 389.04
  C 404.78 390.79 401.97 391.44 399.27 393.22
  C 398.29 393.87 396.38 393.89 395.11 394.60
  C 391.79 396.46 388.10 397.00 384.73 398.37
  C 381.52 399.67 378.08 400.13 374.94 401.20
  C 371.21 402.47 367.50 402.92 363.75 403.83
  C 355.71 405.77 347.85 407.08 339.71 408.46
  C 329.92 410.11 319.85 411.62 309.92 412.04
  Q 307.50 412.14 301.62 412.78
  C 297.89 413.18 294.15 412.92 290.49 413.37
  C 284.18 414.13 277.21 413.92 271.52 414.29
  Q 257.63 415.20 243.74 414.32
  C 237.59 413.94 229.77 414.12 222.80 413.19
  C 219.73 412.77 216.04 413.06 212.75 412.71
  C 205.50 411.92 198.17 411.81 191.12 410.76
  C 183.44 409.62 175.80 408.87 168.12 407.36
  C 163.07 406.38 157.66 405.85 152.78 404.31
  C 148.76 403.04 145.11 402.87 141.33 401.69
  C 136.42 400.15 131.92 399.24 127.45 397.34
  C 126.54 396.95 125.47 396.92 124.49 396.55
  C 111.29 391.63 93.20 384.59 87.38 371.21
  Z"
/>
</svg>
