<?xml version="1.0" encoding="UTF-8" standalone="no"?>
<!DOCTYPE svg PUBLIC "-//W3C//DTD SVG 1.1//EN" "http://www.w3.org/Graphics/SVG/1.1/DTD/svg11.dtd">
<svg xmlns="http://www.w3.org/2000/svg" version="1.1" viewBox="0.00 0.00 512.00 512.00">
<path fill="#198754" d="
  M 450.71 354.53
  C 452.79 353.06 454.73 350.47 457.21 349.81
  A 0.93 0.93 0.0 0 1 458.33 350.98
  C 455.53 360.30 448.02 365.17 442.76 373.82
  C 442.38 374.44 442.22 374.39 441.70 374.82
  Q 441.25 375.19 441.62 375.63
  L 444.27 378.74
  A 1.05 1.00 -61.8 0 1 444.50 379.56
  C 444.11 382.05 443.46 383.87 444.15 386.43
  C 446.06 393.59 441.82 402.06 438.93 410.43
  Q 438.19 412.56 436.00 412.39
  Q 422.77 411.35 410.83 405.67
  C 406.85 403.77 407.12 400.61 406.39 397.06
  Q 406.28 396.50 405.75 396.70
  Q 401.82 398.22 397.71 397.22
  C 393.57 396.21 392.83 393.52 391.94 390.25
  A 0.48 0.48 0.0 0 0 391.07 390.12
  L 389.27 393.03
  Q 389.00 393.47 388.48 393.47
  Q 383.21 393.44 378.01 393.26
  C 375.36 393.17 373.77 389.58 373.07 387.51
  Q 372.92 387.05 372.44 386.96
  Q 366.79 385.93 361.82 382.99
  Q 361.37 382.73 360.85 382.83
  C 355.22 383.94 350.17 387.26 346.51 388.70
  C 340.06 391.25 332.00 390.83 325.70 392.57
  Q 320.15 394.11 314.92 396.58
  Q 314.46 396.79 314.25 397.25
  C 313.06 399.85 312.01 401.91 309.67 403.81
  C 305.13 407.49 300.74 412.78 295.65 415.35
  C 289.96 418.23 283.96 419.28 277.99 420.73
  C 275.71 421.28 271.41 418.34 269.18 417.29
  C 266.39 415.98 263.32 415.85 260.26 415.00
  Q 257.07 414.11 254.64 414.21
  C 251.62 414.33 248.18 415.05 245.23 414.47
  Q 244.09 414.24 242.08 412.83
  C 236.61 408.99 228.58 413.05 222.20 415.46
  C 218.35 416.91 210.94 414.35 207.03 413.18
  C 203.81 412.21 200.22 412.49 197.21 411.11
  C 191.50 408.49 174.85 402.29 169.20 405.58
  C 167.48 406.59 163.72 409.77 161.80 409.33
  Q 154.86 407.76 150.25 404.75
  C 146.93 402.58 148.97 396.64 151.09 394.04
  C 152.85 391.90 155.69 391.26 158.04 389.62
  A 0.55 0.54 -54.6 0 0 157.88 388.65
  L 153.97 387.50
  Q 153.40 387.34 153.19 386.78
  C 151.08 381.32 145.53 381.21 140.62 379.46
  A 1.27 1.27 0.0 0 1 139.78 378.31
  L 139.61 373.83
  A 0.73 0.73 0.0 0 0 139.07 373.15
  L 135.36 372.14
  A 1.75 1.74 4.4 0 1 134.08 370.65
  L 133.87 368.69
  Q 133.81 368.18 133.42 367.86
  L 129.13 364.33
  A 2.19 2.19 0.0 0 1 129.52 360.70
  Q 132.92 358.94 134.41 355.35
  A 2.14 2.13 17.3 0 1 136.84 354.08
  Q 139.04 354.55 141.23 354.42
  Q 142.96 354.31 141.68 353.14
  Q 139.06 350.74 135.25 348.88
  C 132.69 347.63 130.69 344.94 127.85 344.48
  Q 127.35 344.40 126.97 344.74
  Q 125.58 345.98 124.12 347.10
  C 119.51 350.66 118.02 356.62 113.45 359.76
  A 1.36 1.35 30.8 0 1 112.52 359.99
  C 108.21 359.52 109.54 350.45 102.06 349.53
  Q 96.22 348.81 90.51 347.48
  C 84.81 346.16 87.84 341.09 83.13 339.67
  Q 79.84 338.69 75.49 337.65
  A 2.98 2.97 10.9 0 1 73.23 334.31
  L 73.46 332.78
  Q 73.82 330.41 76.22 330.47
  L 82.70 330.65
  A 0.60 0.60 0.0 0 0 83.31 329.99
  C 83.06 327.62 80.70 326.85 78.69 326.68
  A 1.52 1.51 -19.4 0 1 77.74 326.23
  Q 75.75 324.19 74.64 321.56
  Q 74.12 320.35 75.19 319.57
  Q 76.04 318.95 77.09 318.79
  Q 77.66 318.69 77.98 318.21
  L 80.87 313.82
  A 2.34 2.34 0.0 0 0 79.71 310.32
  Q 76.79 309.26 73.59 307.87
  C 71.84 307.11 70.72 305.68 69.33 304.87
  Q 67.21 303.62 65.01 302.51
  Q 64.21 302.10 61.34 301.43
  C 56.85 300.39 51.96 295.29 49.39 292.41
  C 47.17 289.94 39.76 287.68 45.61 283.79
  Q 46.33 283.32 46.00 282.53
  C 44.33 278.58 45.02 274.46 45.39 270.32
  Q 45.43 269.80 44.91 269.84
  C 42.95 269.99 40.12 270.91 39.05 268.59
  Q 38.01 266.33 37.07 264.01
  C 36.21 261.91 34.66 260.76 33.34 258.96
  A 1.14 1.12 75.7 0 0 32.60 258.51
  L 31.05 258.28
  Q 30.56 258.21 30.30 257.78
  L 28.76 255.25
  Q 28.49 254.80 27.99 254.62
  C 23.73 253.10 23.32 253.63 23.22 248.75
  Q 23.21 248.20 22.79 247.85
  C 20.63 246.03 15.99 237.96 21.66 237.34
  Q 27.44 236.71 29.25 237.52
  Q 34.58 239.92 39.70 237.27
  Q 40.15 237.03 40.28 236.53
  Q 41.26 232.61 45.58 230.13
  Q 47.94 228.78 49.46 229.16
  Q 53.60 230.18 57.83 230.82
  Q 58.37 230.90 58.86 230.64
  L 63.59 228.15
  A 0.91 0.90 86.4 0 0 64.01 227.67
  Q 64.40 226.57 64.22 225.24
  C 63.80 221.95 66.44 220.75 69.13 219.29
  Q 69.62 219.02 69.56 218.47
  L 68.95 213.33
  Q 68.89 212.83 69.07 212.35
  L 71.73 205.32
  A 1.09 1.08 -83.4 0 1 72.59 204.63
  L 75.19 204.23
  A 1.13 1.11 1.9 0 0 76.11 203.38
  L 76.94 199.97
  A 1.21 1.20 81.6 0 1 77.50 199.21
  C 78.24 198.75 79.21 198.75 79.82 198.26
  C 81.57 196.85 81.33 193.34 81.55 191.28
  C 81.98 187.32 83.45 184.78 86.85 182.92
  Q 87.31 182.67 87.52 182.19
  L 89.17 178.21
  Q 89.40 177.67 89.09 177.17
  C 87.37 174.29 90.49 171.39 92.53 169.91
  C 95.16 168.00 94.09 164.40 96.25 161.59
  Q 98.98 158.06 99.85 153.62
  C 100.64 149.60 103.85 150.01 105.88 147.26
  C 108.54 143.64 105.15 139.35 108.99 136.24
  Q 111.25 134.42 113.63 132.75
  Q 114.04 132.46 114.17 131.97
  C 115.01 128.76 115.24 126.01 118.52 124.29
  Q 124.31 121.26 129.37 117.28
  A 1.70 1.69 -47.6 0 1 131.33 117.19
  L 133.68 118.69
  Q 134.14 118.99 134.69 118.97
  Q 137.82 118.90 139.16 116.90
  C 142.04 112.57 144.14 108.59 149.31 106.59
  A 1.28 1.26 -87.3 0 0 150.00 105.95
  Q 150.78 104.29 152.22 103.17
  A 0.99 0.97 67.2 0 0 152.59 102.24
  Q 152.34 100.67 152.69 99.10
  A 1.08 1.08 0.0 0 1 154.56 98.62
  L 157.11 101.55
  A 0.99 0.98 48.5 0 0 158.51 101.64
  Q 161.63 98.87 163.34 95.04
  A 1.88 1.88 0.0 0 1 164.24 94.11
  Q 167.88 92.36 171.77 93.69
  Q 172.31 93.87 172.53 94.40
  C 174.24 98.52 177.04 101.33 179.28 105.13
  Q 179.55 105.60 180.04 105.36
  C 184.43 103.27 187.30 100.93 192.56 102.29
  Q 200.50 104.33 208.75 103.98
  Q 210.97 103.88 213.05 106.57
  Q 213.37 106.98 213.88 106.99
  Q 220.66 107.19 227.36 106.60
  C 232.31 106.16 236.54 101.51 240.89 106.64
  C 242.38 108.40 243.50 111.81 245.99 113.54
  C 247.85 114.84 250.48 115.60 251.15 118.20
  Q 251.62 120.05 252.43 121.77
  Q 252.71 122.37 253.29 122.07
  Q 257.13 120.12 261.47 119.96
  A 1.09 1.09 0.0 0 0 262.32 119.50
  Q 264.68 116.23 267.70 113.68
  C 269.43 112.23 269.60 111.04 270.41 108.99
  C 271.53 106.17 275.80 106.48 278.26 106.23
  C 283.23 105.73 287.27 104.35 292.49 104.84
  C 298.04 105.37 302.10 102.65 307.35 102.32
  C 310.51 102.12 314.77 102.71 316.62 100.87
  Q 320.61 96.90 322.73 91.77
  C 324.10 88.47 327.47 83.48 331.77 85.58
  Q 332.70 86.03 332.73 84.99
  Q 332.76 83.81 333.47 82.91
  Q 333.81 82.48 334.36 82.39
  C 341.41 81.25 346.05 79.60 352.94 83.32
  Q 354.79 84.32 355.70 85.78
  A 1.37 1.34 -56.3 0 1 355.87 86.69
  C 355.24 90.11 359.25 90.81 361.38 91.31
  A 0.91 0.90 0.5 0 1 362.06 92.00
  Q 362.50 94.07 362.66 96.01
  C 362.82 98.09 366.23 100.65 367.90 102.25
  A 1.34 1.32 -71.0 0 1 368.28 103.05
  C 368.42 104.68 368.49 106.08 369.26 107.55
  C 370.28 109.50 371.96 111.54 372.30 113.72
  C 373.00 118.15 375.18 122.33 376.24 126.77
  C 377.04 130.08 383.22 135.69 385.82 138.64
  C 388.77 141.98 390.08 145.90 391.92 149.89
  Q 392.78 151.77 394.45 152.89
  C 396.75 154.45 399.38 155.27 399.18 158.87
  Q 399.15 159.34 399.38 159.75
  C 402.89 165.95 408.36 169.87 412.99 175.26
  C 416.22 179.03 416.24 181.23 416.50 186.08
  Q 416.60 187.73 417.30 189.22
  Q 420.31 195.61 422.88 202.19
  C 424.45 206.22 422.17 209.40 424.44 214.00
  C 427.71 220.62 418.49 228.57 417.54 234.90
  Q 417.47 235.37 417.70 235.78
  C 420.45 240.65 416.44 241.79 416.11 245.74
  Q 415.97 247.32 416.74 251.38
  C 417.45 255.09 417.49 258.38 417.64 262.01
  C 417.81 266.18 421.72 276.73 416.82 279.30
  Q 416.27 279.58 416.79 279.91
  L 417.41 280.30
  A 1.66 1.61 6.5 0 1 418.05 281.08
  Q 420.35 287.01 421.52 288.27
  Q 424.99 292.01 427.54 296.45
  C 428.14 297.49 430.36 298.87 431.77 299.42
  C 436.98 301.43 442.71 305.60 448.37 303.74
  Q 448.81 303.60 448.89 303.15
  C 449.28 301.18 449.44 296.79 451.92 296.47
  A 1.06 1.05 -26.3 0 1 452.78 296.76
  Q 454.06 297.99 455.31 299.18
  Q 456.19 300.01 456.90 300.01
  Q 457.81 300.00 458.11 299.00
  Q 458.26 298.51 458.66 298.19
  C 465.88 292.45 477.35 287.87 486.57 291.13
  C 492.14 293.09 493.49 297.75 495.32 302.63
  C 495.99 304.41 497.21 305.04 498.72 305.98
  A 1.56 1.55 43.3 0 1 498.80 308.57
  Q 495.95 310.57 495.39 314.65
  Q 494.48 321.16 492.91 327.57
  Q 492.78 328.09 493.08 328.54
  Q 493.66 329.39 493.94 330.38
  Q 494.10 330.92 493.85 331.41
  C 491.10 336.98 482.74 336.45 476.36 337.44
  C 470.80 338.29 466.34 340.84 461.12 343.14
  A 1.21 1.21 0.0 0 1 459.45 342.30
  L 459.32 341.73
  A 2.21 2.21 0.0 0 1 460.86 339.14
  Q 463.93 338.25 465.53 335.48
  Q 465.82 334.98 465.24 334.98
  L 463.48 334.99
  A 0.94 0.94 0.0 0 1 462.64 334.47
  Q 460.91 330.91 460.81 326.94
  Q 460.79 326.38 461.21 325.99
  Q 461.82 325.42 462.58 325.08
  Q 463.61 324.62 462.50 324.49
  L 460.01 324.18
  Q 459.40 324.11 459.08 324.63
  Q 457.67 326.90 455.47 328.49
  A 1.09 1.09 0.0 0 0 455.32 330.13
  L 458.70 333.71
  A 1.15 1.12 26.6 0 1 459.01 334.60
  C 458.72 337.91 457.44 341.57 453.42 341.52
  A 1.11 1.09 -68.6 0 0 452.57 341.90
  Q 450.50 344.23 451.95 346.65
  Q 452.70 347.89 452.77 348.49
  C 452.96 350.22 451.02 353.01 450.30 354.13
  A 0.29 0.29 0.0 0 0 450.71 354.53
  Z"
/>
</svg>
