<svg xmlns="http://www.w3.org/2000/svg" id="svg" version="1.1" viewBox="0 0 352 296" style="display: block;">
    <path d="M0 0 C116.16 0 232.32 0 352 0 C352 97.68 352 195.36 352 296 C235.84 296 119.68 296 0 296 C0 198.32 0 100.64 0 0 Z "
          transform="translate(0,0)" style="fill: #000000;"/>
    <path d="M0 0 C3.00049307 2.82798942 5.28463969 5.71564025 7.53125 9.16796875 C8.17707031 10.14314453 8.82289063 11.11832031 9.48828125 12.12304688 C10.83480785 14.17421215 12.17591992 16.22894166 13.51171875 18.28710938 C14.15753906 19.25841797 14.80335938 20.22972656 15.46875 21.23046875 C16.05076172 22.12145264 16.63277344 23.01243652 17.23242188 23.93041992 C18.82269441 26.10730613 18.82269441 26.10730613 21.05541992 26.85986328 C28.09330577 27.36705054 36.0044134 18.86784558 41.27539062 14.83007812 C42.09587891 14.21197266 42.91636719 13.59386719 43.76171875 12.95703125 C44.50381592 12.38960205 45.24591309 11.82217285 46.01049805 11.23754883 C48 10 48 10 51 10 C51.48243164 10.8521106 51.48243164 10.8521106 51.97460938 11.72143555 C57.46023925 21.398564 62.9535748 31.04849471 68.83984375 40.48828125 C71.63037021 44.9917514 74.30966271 49.56124417 77 54.125 C77.54487061 55.04925781 78.08974121 55.97351563 78.65112305 56.92578125 C79.81245828 58.89625028 80.97366787 60.86679337 82.13476562 62.83740234 C85.49911033 68.54181613 88.8741746 74.23987609 92.25 79.9375 C92.59620392 80.52196899 92.94240784 81.10643799 93.29910278 81.70861816 C96.9922722 87.94275657 100.69459057 94.17060275 104.4375 100.375 C107.33970168 105.19332712 110.19841491 110.03578649 113.0390625 114.890625 C113.40731644 115.5198587 113.77557037 116.14909241 114.15498352 116.7973938 C116.00928911 119.96688681 117.86147726 123.13759357 119.71069336 126.31005859 C123.07761646 132.07732308 126.48110057 137.81325774 129.99609375 143.4921875 C134.66044112 151.02914963 139.11476905 158.6833196 143.57275391 166.34326172 C147.31716401 172.77272946 151.08663849 179.17749236 155.00390625 185.50390625 C157.79267665 190.00884305 160.51708412 194.54330196 163.18359375 199.12109375 C163.53342316 199.72156525 163.88325256 200.32203674 164.24368286 200.94070435 C165.66395891 203.38169039 167.08217864 205.8238524 168.49731445 208.26782227 C169.55657026 210.09558172 170.61909895 211.92138088 171.68359375 213.74609375 C172.02989838 214.34094574 172.376203 214.93579773 172.73300171 215.54867554 C174.59394194 218.71453062 176.51666969 221.82196549 178.53955078 224.88720703 C178.95632584 225.51981949 179.37310089 226.15243195 179.80250549 226.80421448 C180.60492124 228.0123725 181.41552659 229.21514406 182.23545837 230.41148376 C184.40911416 233.67618588 185 234.9333861 185 239 C69.83 239 -45.34 239 -164 239 C-163.11974666 234.59873329 -162.42976129 232.65145163 -160.18359375 228.9921875 C-159.59255859 228.01958984 -159.00152344 227.04699219 -158.39257812 226.04492188 C-157.42481445 224.47581055 -157.42481445 224.47581055 -156.4375 222.875 C-155.4134025 221.1924837 -154.38933014 219.50995159 -153.36660767 217.82659912 C-152.6557017 216.65700512 -151.94391623 215.48794529 -151.23129272 214.31939697 C-147.42890116 208.08094266 -143.71356204 201.79165126 -140 195.5 C-134.86370137 186.81488417 -129.69932805 178.1475268 -124.5 169.5 C-115.39665585 154.35617518 -106.4007237 139.14917895 -97.41796875 123.93359375 C-96.29947949 122.03906231 -95.18098992 120.14453105 -94.0625 118.25 C-93.52447754 117.33847168 -92.98645508 116.42694336 -92.43212891 115.48779297 C-89.2261278 110.06064078 -85.99172665 104.65214565 -82.73486328 99.25537109 C-80.10810956 94.88529045 -77.52409083 90.49064346 -74.94921875 86.08984375 C-74.58170502 85.46184372 -74.21419128 84.83384369 -73.83554077 84.18681335 C-71.98466257 81.02297733 -70.13592805 77.85791146 -68.29003906 74.69116211 C-64.22632846 67.73038559 -60.07707493 60.83504775 -55.83276367 53.98242188 C-54.20904302 51.34017177 -52.62314267 48.68145507 -51.05859375 46.00390625 C-50.61966797 45.26076172 -50.18074219 44.51761719 -49.72851562 43.75195312 C-48.85485076 42.27029153 -47.99050284 40.78310316 -47.13476562 39.29101562 C-44.0732891 34.15549021 -40.75667813 30.59731274 -36 27 C-35.39051514 26.52957275 -34.78103027 26.05914551 -34.15307617 25.57446289 C-32.23984079 24.11499654 -30.31035386 22.67998097 -28.375 21.25 C-26.96692975 20.2025191 -25.55938543 19.15433088 -24.15234375 18.10546875 C-23.45608887 17.58645996 -22.75983398 17.06745117 -22.04248047 16.53271484 C-18.98497691 14.23830804 -15.96006187 11.90263417 -12.9375 9.5625 C-8.68596871 6.278668 -4.4055801 3.07366053 0 0 Z "
          transform="translate(166,56)" style="fill: #FFFFFF;"/>
    <path d="M0 0 C28.05 0 56.1 0 85 0 C80.05147398 8.65992054 75.08815047 17.27667359 69.9375 25.8125 C68.64190878 27.96613482 67.34633647 30.11978102 66.05078125 32.2734375 C65.39029785 33.37010742 64.72981445 34.46677734 64.04931641 35.59667969 C61.24549003 40.25302228 58.44501058 44.91136857 55.64672852 49.57104492 C54.31856864 51.78261315 52.98965307 53.99372776 51.65991211 56.2043457 C51.06315674 57.19781006 50.46640137 58.19127441 49.8515625 59.21484375 C49.32385254 60.09261475 48.79614258 60.97038574 48.25244141 61.87475586 C47.45700559 63.22451585 46.70065258 64.59869485 46 66 C43.19921875 66.23828125 43.19921875 66.23828125 40 66 C38.26953125 64.48046875 38.26953125 64.48046875 36.8125 62.1875 C36.2246875 61.27097656 35.636875 60.35445313 35.03125 59.41015625 C31.6211139 53.68506237 28.26961552 47.92883146 24.9609375 42.14453125 C17.91096496 29.84572533 10.54813887 17.72337858 2.94506836 5.7590332 C0 1.10337453 0 1.10337453 0 0 Z "
          transform="translate(223,227)" style="fill: #000000;"/>
    <path d="M0 0 C28.05 0 56.1 0 85 0 C80.05149553 8.65988281 75.08865816 17.27699924 69.9375 25.8125 C68.64046884 27.96605179 67.343599 30.11970075 66.046875 32.2734375 C65.38623047 33.37010742 64.72558594 34.46677734 64.04492188 35.59667969 C61.94377909 39.09356728 59.853288 42.59662185 57.765625 46.1015625 C57.07569295 47.25811077 56.38567141 48.41460567 55.69555664 49.57104492 C54.37743922 51.78083472 53.0614501 53.99189569 51.74780273 56.2043457 C51.15427002 57.19781006 50.5607373 58.19127441 49.94921875 59.21484375 C49.42674561 60.09261475 48.90427246 60.97038574 48.3659668 61.87475586 C47 64 47 64 45 66 C42.5703125 66.36328125 42.5703125 66.36328125 40 66 C38.3671875 64.48046875 38.3671875 64.48046875 36.875 62.1875 C36.27816406 61.27097656 35.68132812 60.35445313 35.06640625 59.41015625 C31.60952848 53.70532771 28.27326146 47.93422439 24.9609375 42.14453125 C17.91096496 29.84572533 10.54813887 17.72337858 2.94506836 5.7590332 C0 1.10337453 0 1.10337453 0 0 Z "
          transform="translate(134,227)" style="fill: #000000;"/>
    <path d="M0 0 C28.05 0 56.1 0 85 0 C80.05149553 8.65988281 75.08865816 17.27699924 69.9375 25.8125 C68.64046884 27.96605179 67.343599 30.11970075 66.046875 32.2734375 C65.38623047 33.37010742 64.72558594 34.46677734 64.04492188 35.59667969 C61.94377909 39.09356728 59.853288 42.59662185 57.765625 46.1015625 C57.07569295 47.25811077 56.38567141 48.41460567 55.69555664 49.57104492 C54.37743922 51.78083472 53.0614501 53.99189569 51.74780273 56.2043457 C51.15427002 57.19781006 50.5607373 58.19127441 49.94921875 59.21484375 C49.42674561 60.09261475 48.90427246 60.97038574 48.3659668 61.87475586 C47 64 47 64 45 66 C42.5703125 66.36328125 42.5703125 66.36328125 40 66 C38.3671875 64.48046875 38.3671875 64.48046875 36.875 62.1875 C36.27816406 61.27097656 35.68132812 60.35445313 35.06640625 59.41015625 C31.60952848 53.70532771 28.27326146 47.93422439 24.9609375 42.14453125 C17.91096496 29.84572533 10.54813887 17.72337858 2.94506836 5.7590332 C0 1.10337453 0 1.10337453 0 0 Z "
          transform="translate(45,227)" style="fill: #000000;"/>
    <path d="M0 0 C0.99 0 1.98 0 3 0 C4.6640625 2.26171875 4.6640625 2.26171875 6.625 5.6875 C7.1806665 6.64414551 7.1806665 6.64414551 7.74755859 7.62011719 C8.63293469 9.14510417 9.51349372 10.67289267 10.390625 12.20263672 C13.39678247 17.42784186 16.45142923 22.62483953 19.49920654 27.82583618 C20.60080778 29.70865156 21.69851442 31.59368832 22.79541016 33.47924805 C23.50135631 34.68944866 24.20756988 35.89949332 24.9140625 37.109375 C25.25506989 37.69507767 25.59607727 38.28078033 25.94741821 38.88423157 C28.74059313 43.64573639 31.74793812 48.2441614 34.86083984 52.80175781 C35.2367627 53.52717773 35.61268555 54.25259766 36 55 C34.86476605 58.40570184 34.17570121 58.86318087 31.32421875 60.84765625 C30.57849609 61.37037109 29.83277344 61.89308594 29.06445312 62.43164062 C27.88786133 63.23891602 27.88786133 63.23891602 26.6875 64.0625 C25.91470703 64.60455078 25.14191406 65.14660156 24.34570312 65.70507812 C20.97561185 68.04936346 17.71414526 70.23306644 14 72 C13.6376123 71.46632813 13.27522461 70.93265625 12.90185547 70.3828125 C11.22820624 67.92052996 9.55162137 65.46025961 7.875 63 C7.30523437 62.16082031 6.73546875 61.32164063 6.1484375 60.45703125 C4.4460879 57.96154149 2.72418226 55.48043742 1 53 C0.47438477 52.21625 -0.05123047 51.4325 -0.59277344 50.625 C-3.43716484 46.48284665 -3.43716484 46.48284665 -7.5625 43.79296875 C-10.88685981 44.07532623 -12.38105226 45.25646633 -15 47.3125 C-15.94488281 48.04082031 -16.88976562 48.76914062 -17.86328125 49.51953125 C-18.89839844 50.33808594 -19.93351562 51.15664063 -21 52 C-22.20012173 52.92278961 -23.40199569 53.84330413 -24.60546875 54.76171875 C-27.74748274 57.16111349 -30.87644134 59.57663494 -34 62 C-34.66 61.67 -35.32 61.34 -36 61 C-27.42273346 45.95242941 -18.6755754 31.02990771 -9.63696289 16.25488281 C-6.34802253 10.87660372 -3.08066678 5.50062208 0 0 Z "
          transform="translate(175,1)" style="fill: #FFFFFF;"/>
</svg>