<?xml version="1.0" encoding="UTF-8" standalone="no"?>
<!DOCTYPE svg PUBLIC "-//W3C//DTD SVG 1.1//EN" "http://www.w3.org/Graphics/SVG/1.1/DTD/svg11.dtd">
<svg xmlns="http://www.w3.org/2000/svg" version="1.1" viewBox="0.00 0.00 512.00 512.00">
<path fill="#198754" d="
  M 322.73 99.24
  C 325.16 95.78 327.80 93.97 330.69 91.56
  C 332.93 89.70 335.17 89.25 337.71 88.16
  C 355.37 80.57 378.71 95.37 379.00 114.92
  C 379.08 120.67 379.51 126.41 376.30 131.95
  C 373.85 136.16 371.47 140.01 367.45 142.97
  C 363.88 145.61 361.27 147.60 356.45 148.29
  A 1.65 1.64 -71.0 0 0 355.58 148.72
  C 353.72 150.55 343.91 149.75 341.23 149.41
  Q 340.74 149.34 340.36 149.02
  Q 339.35 148.18 337.27 147.92
  Q 334.44 147.56 331.75 145.48
  C 329.90 144.04 327.91 142.91 326.26 141.27
  C 317.55 132.58 313.11 119.17 318.26 107.41
  C 319.18 105.31 319.74 102.50 321.35 100.86
  Q 322.20 100.00 322.73 99.24
  Z"
/>
<path fill="#198754" d="
  M 246.64 165.09
  Q 246.52 165.25 246.37 165.38
  Q 246.26 165.47 246.11 165.50
  C 244.49 165.79 243.12 166.58 241.59 166.76
  C 236.64 167.31 230.13 167.72 225.59 165.34
  Q 223.68 164.33 221.67 163.53
  C 219.06 162.48 215.91 159.84 214.01 157.78
  Q 206.66 149.81 206.29 138.93
  C 206.20 136.33 206.72 133.66 207.08 130.86
  C 208.10 122.81 214.73 115.27 221.47 111.43
  C 224.88 109.49 228.60 108.82 232.52 107.99
  C 236.50 107.14 239.11 108.12 242.65 108.87
  C 250.05 110.43 256.45 115.15 260.33 121.44
  Q 269.69 136.61 261.32 152.19
  C 260.22 154.23 258.51 156.10 257.11 158.12
  Q 256.81 158.55 256.34 158.75
  Q 254.34 159.63 253.27 161.50
  Q 253.01 161.96 252.53 162.17
  L 247.31 164.54
  Q 246.90 164.72 246.64 165.09
  Z"
/>
<path fill="#198754" d="
  M 383.55 198.29
  C 383.53 203.68 383.88 209.38 383.83 214.41
  Q 383.51 243.78 383.28 273.16
  Q 383.23 279.61 384.07 287.79
  C 385.04 297.34 386.29 309.78 386.88 321.32
  Q 387.07 324.98 387.84 329.12
  C 388.67 333.59 388.72 338.30 389.28 342.60
  Q 389.76 346.30 389.91 350.04
  C 390.13 355.89 391.10 361.57 391.06 367.47
  C 391.05 370.23 391.90 372.73 392.20 375.51
  Q 393.37 386.14 394.08 396.81
  C 394.41 401.85 395.62 407.17 393.29 412.02
  Q 388.84 421.29 378.86 422.02
  C 369.71 422.68 363.41 417.49 361.11 408.85
  C 359.78 403.86 360.07 397.58 359.51 392.21
  C 359.13 388.60 359.30 382.11 358.37 377.22
  Q 357.59 373.06 357.42 371.23
  Q 355.85 353.97 354.73 336.68
  Q 354.61 334.89 353.77 330.39
  C 353.26 327.62 353.30 324.21 353.05 321.87
  Q 351.28 305.13 350.71 288.25
  A 0.17 0.16 16.8 0 0 350.63 288.11
  L 350.24 287.87
  Q 350.10 287.79 350.08 287.95
  L 348.16 309.99
  Q 348.13 310.29 347.86 310.40
  Q 347.67 310.47 347.63 310.75
  C 346.92 315.88 346.87 322.17 346.48 326.75
  Q 345.36 340.17 344.20 353.59
  Q 344.16 354.06 343.84 354.40
  Q 343.52 354.73 343.47 355.25
  C 342.52 364.98 342.68 375.11 341.37 384.82
  C 340.76 389.35 340.83 394.36 339.81 398.97
  C 338.91 403.03 339.56 407.32 338.24 410.90
  C 334.16 422.05 320.22 425.30 311.31 418.17
  Q 306.31 414.17 305.29 406.49
  C 304.57 401.10 306.72 394.35 306.95 388.50
  C 307.08 385.35 307.12 382.48 307.55 379.19
  C 308.91 368.74 308.35 358.34 310.74 348.40
  Q 311.01 347.27 310.99 346.08
  C 310.86 339.71 311.83 333.43 312.14 327.11
  C 312.34 322.95 313.00 318.93 313.27 314.72
  C 313.59 309.73 314.85 304.86 314.99 300.04
  C 315.18 293.63 316.24 286.89 316.24 280.25
  Q 316.24 239.50 316.23 199.43
  Q 316.23 197.80 315.62 199.31
  C 314.79 201.34 315.07 204.27 314.81 206.23
  Q 313.61 215.34 312.24 224.43
  Q 312.16 224.92 311.88 225.33
  Q 311.43 225.97 311.34 227.00
  Q 310.41 237.47 308.28 250.38
  C 308.13 251.28 307.45 251.87 307.37 252.73
  Q 306.25 265.08 305.46 268.77
  Q 305.03 270.79 303.18 273.04
  C 294.07 284.19 277.45 276.19 279.30 262.49
  Q 280.31 255.01 281.51 247.58
  Q 281.57 247.18 282.60 243.52
  C 283.13 241.65 282.95 239.41 283.16 237.82
  Q 284.44 228.22 285.85 218.64
  Q 285.85 218.62 285.86 218.63
  Q 285.96 218.76 286.08 218.77
  Q 286.19 218.78 286.23 218.67
  C 287.06 215.91 287.00 212.45 287.27 210.44
  C 288.09 204.24 288.60 197.65 290.47 191.68
  C 291.09 189.69 291.04 187.62 291.60 185.81
  Q 296.93 168.46 312.06 159.04
  C 315.15 157.11 318.96 155.70 322.58 154.29
  C 326.52 152.76 331.22 152.81 335.41 152.48
  Q 338.07 152.27 342.05 152.83
  Q 347.71 153.63 353.36 152.82
  C 360.10 151.86 365.67 152.42 372.11 153.07
  C 376.27 153.50 379.14 154.84 382.99 156.31
  C 391.98 159.74 399.80 167.34 404.68 175.47
  C 406.33 178.23 407.57 181.79 409.11 184.95
  Q 410.87 188.56 411.14 197.25
  C 411.20 199.06 412.31 201.18 412.58 203.12
  C 413.44 209.34 414.55 215.65 414.98 221.90
  Q 415.14 224.15 416.12 227.51
  Q 417.32 231.61 418.70 245.27
  Q 419.16 249.76 420.34 254.84
  C 422.54 264.36 422.54 272.45 413.24 277.30
  C 405.43 281.37 396.60 277.09 394.89 268.47
  C 394.49 266.45 393.82 264.43 393.54 262.48
  C 392.70 256.62 391.78 250.74 391.11 244.87
  C 390.21 236.95 388.60 230.07 387.37 219.94
  C 386.60 213.55 384.47 205.68 384.02 198.27
  Q 384.00 198.05 383.78 198.06
  L 383.77 198.06
  Q 383.55 198.06 383.55 198.29
  Z"
/>
<path fill="#198754" d="
  M 197.74 232.48
  L 192.41 246.88
  Q 192.24 247.34 191.90 247.70
  C 190.73 248.95 190.96 251.40 189.89 253.06
  Q 189.48 253.70 188.72 253.70
  L 168.50 253.73
  A 1.05 1.04 -84.1 0 1 167.48 252.47
  Q 168.37 248.18 169.95 244.34
  C 171.85 239.73 173.47 234.37 175.05 230.27
  Q 184.23 206.37 192.70 182.21
  C 195.27 174.87 205.04 172.03 211.54 169.61
  C 214.50 168.50 219.34 167.01 222.43 168.16
  C 230.68 171.23 238.79 171.19 247.10 168.47
  C 250.98 167.20 256.36 168.22 259.93 169.84
  C 265.60 172.41 275.51 174.79 277.64 180.78
  C 279.27 185.35 281.43 189.52 282.68 194.36
  C 283.23 196.50 284.99 199.21 285.09 201.24
  Q 285.24 204.27 284.24 208.18
  Q 283.16 212.36 282.90 214.97
  Q 282.00 223.79 280.58 232.55
  C 280.15 235.14 278.82 238.91 278.71 242.26
  Q 278.69 242.80 278.33 243.05
  A 0.88 0.88 0.0 0 1 276.98 242.60
  C 276.01 239.52 275.19 234.32 273.30 231.85
  Q 272.91 231.33 272.85 231.98
  Q 272.67 233.94 272.51 235.88
  C 272.32 238.21 271.16 240.33 271.08 242.75
  C 270.86 248.66 270.54 255.70 271.88 261.96
  C 272.45 264.62 272.63 267.64 273.05 270.01
  C 273.97 275.15 274.65 280.28 276.09 285.24
  Q 280.55 300.49 283.37 307.20
  Q 285.45 312.15 286.45 315.05
  C 287.40 317.83 289.09 319.89 289.95 322.60
  Q 290.88 325.49 292.23 328.09
  A 0.72 0.72 0.0 0 1 291.87 329.09
  C 290.91 329.48 290.41 330.24 289.39 330.63
  Q 286.48 331.74 283.84 333.38
  C 281.07 335.12 278.31 335.61 275.55 337.10
  Q 272.09 338.97 268.22 339.73
  C 266.03 340.17 264.17 341.21 262.50 341.71
  Q 260.51 342.31 253.49 343.53
  C 250.84 343.99 247.63 343.98 244.49 344.48
  Q 236.45 345.76 227.99 344.61
  C 223.61 344.02 218.53 343.94 214.00 342.69
  A 1.02 1.02 0.0 0 1 213.26 341.71
  Q 213.25 320.24 213.24 299.21
  C 213.24 289.94 206.71 284.42 197.75 284.88
  Q 195.65 284.99 194.33 284.12
  Q 193.90 283.84 194.08 283.36
  C 195.06 280.68 195.20 278.42 195.77 275.00
  Q 196.66 269.72 198.26 256.45
  C 199.26 248.12 199.08 240.57 198.37 232.56
  A 0.33 0.32 -37.6 0 0 197.74 232.48
  Z"
/>
<path fill="#198754" d="
  M 187.04 267.26
  L 187.03 287.73
  Q 187.03 288.19 187.49 288.19
  C 193.05 288.31 201.55 287.03 206.21 290.57
  Q 209.89 293.36 209.89 297.87
  Q 209.88 346.26 209.89 394.64
  Q 209.89 402.42 209.52 403.81
  Q 208.19 408.87 202.49 410.96
  Q 202.03 411.13 202.02 411.62
  L 201.85 418.72
  Q 201.83 419.39 201.20 419.60
  Q 199.88 420.04 199.23 421.20
  Q 198.96 421.68 198.41 421.79
  Q 194.30 422.60 192.13 419.82
  C 190.45 417.66 191.01 414.49 191.01 411.75
  Q 191.01 411.25 190.51 411.25
  L 159.53 411.26
  Q 158.55 411.26 158.48 410.28
  L 157.43 394.72
  A 1.60 1.60 0.0 0 1 159.03 393.01
  L 191.19 393.01
  A 0.45 0.44 90.0 0 0 191.63 392.56
  L 191.66 354.22
  A 0.44 0.44 0.0 0 0 191.22 353.78
  L 159.96 353.81
  A 1.89 1.87 76.0 0 1 158.30 352.80
  C 156.11 348.62 154.13 346.91 149.25 346.95
  Q 142.87 347.02 136.79 346.96
  A 1.97 1.97 0.0 0 1 135.18 346.10
  C 131.20 340.34 127.68 338.56 120.59 338.86
  Q 120.01 338.88 120.01 338.31
  Q 119.97 317.23 120.02 296.26
  C 120.03 292.91 122.58 292.27 124.21 290.04
  Q 124.51 289.63 124.99 289.48
  C 130.58 287.70 136.00 288.29 141.77 288.21
  Q 142.24 288.21 142.24 287.73
  L 142.24 267.29
  Q 142.24 266.84 141.79 266.82
  L 139.51 266.70
  Q 138.27 266.63 138.28 265.39
  L 138.35 258.22
  A 1.17 1.17 0.0 0 1 139.52 257.06
  L 190.03 257.06
  A 0.97 0.96 90.0 0 1 190.99 258.03
  L 190.97 266.00
  Q 190.97 266.72 190.25 266.73
  L 187.49 266.79
  Q 187.04 266.80 187.04 267.26
  Z
  M 179.06 267.09
  A 0.31 0.31 0.0 0 0 178.75 266.78
  L 151.03 266.78
  A 0.31 0.31 0.0 0 0 150.72 267.09
  L 150.72 288.15
  A 0.31 0.31 0.0 0 0 151.03 288.46
  L 178.75 288.46
  A 0.31 0.31 0.0 0 0 179.06 288.15
  L 179.06 267.09
  Z
  M 190.49 322.99
  A 0.51 0.51 0.0 0 0 191.00 322.48
  L 191.00 308.98
  A 0.51 0.51 0.0 0 0 190.49 308.47
  L 139.52 308.49
  A 0.51 0.51 0.0 0 0 139.01 309.00
  L 139.01 322.45
  A 0.51 0.51 0.0 0 0 139.52 322.96
  L 190.49 322.99
  Z"
/>
<path fill="#198754" d="
  M 162.95 273.01
  Q 162.23 272.10 162.28 271.67
  A 1.99 1.96 -86.1 0 1 164.25 269.93
  L 173.93 270.07
  Q 175.26 270.09 175.26 271.43
  L 175.26 277.79
  Q 175.26 279.11 173.94 279.22
  C 171.80 279.39 169.14 279.29 167.32 277.78
  C 166.11 276.77 164.86 276.08 164.04 274.65
  Q 163.55 273.78 162.95 273.01
  Z"
/>
<path fill="#198754" d="
  M 112.89 349.79
  Q 114.08 347.24 116.02 345.22
  C 117.27 343.92 119.00 343.79 120.50 342.59
  Q 120.89 342.29 121.38 342.26
  Q 129.61 341.84 132.81 349.24
  Q 133.27 350.29 134.41 350.29
  Q 141.49 350.25 149.00 350.56
  C 151.73 350.67 154.91 351.18 155.10 354.50
  C 155.39 359.72 155.57 365.61 153.26 370.23
  Q 148.67 379.38 137.62 382.86
  A 1.22 1.20 67.5 0 1 136.18 382.25
  C 134.68 379.28 131.53 375.75 127.75 375.68
  C 124.45 375.61 117.17 375.05 114.45 376.90
  Q 111.61 378.83 110.56 381.79
  A 1.57 1.56 17.8 0 1 108.64 382.77
  C 95.23 378.89 89.84 369.01 90.89 355.50
  Q 91.28 350.59 96.24 350.61
  Q 104.20 350.63 112.13 350.30
  Q 112.66 350.27 112.89 349.79
  Z
  M 119.24 350.04
  L 127.42 350.38
  A 0.15 0.15 0.0 0 0 127.57 350.24
  L 127.58 350.16
  A 4.14 2.15 2.4 0 0 123.53 347.84
  L 123.33 347.83
  A 4.14 2.15 2.4 0 0 119.10 349.80
  L 119.10 349.88
  A 0.15 0.15 0.0 0 0 119.24 350.04
  Z"
/>
<path fill="#198754" d="
  M 268.86 409.75
  C 268.86 412.80 266.56 417.43 263.99 419.26
  C 256.11 424.87 245.45 420.65 243.66 411.18
  Q 243.41 409.87 243.41 401.78
  Q 243.42 375.74 243.40 349.38
  A 1.19 1.18 86.7 0 1 244.45 348.20
  C 246.85 347.92 249.10 348.12 251.48 347.52
  Q 259.20 345.58 267.02 344.11
  Q 267.78 343.97 268.23 344.06
  A 0.84 0.83 -84.1 0 1 268.89 344.88
  Q 268.87 377.56 268.86 409.75
  Z"
/>
<path fill="#198754" d="
  M 219.54 347.47
  Q 223.17 348.36 226.89 347.97
  A 1.94 1.93 -3.0 0 1 229.03 349.89
  Q 229.06 379.85 229.02 410.25
  C 229.01 417.01 221.60 422.87 214.63 421.98
  C 212.25 421.68 210.07 420.23 207.90 419.09
  Q 207.41 418.84 207.20 418.33
  Q 206.71 417.14 205.85 416.27
  A 1.91 1.90 -42.4 0 1 205.98 413.48
  C 207.33 412.33 209.03 411.41 210.14 409.99
  Q 213.25 406.05 213.25 401.75
  Q 213.25 375.41 213.25 347.81
  Q 213.25 346.88 214.12 346.56
  C 216.10 345.83 218.08 347.11 219.54 347.47
  Z"
/>
<path fill="#198754" d="
  M 152.80 418.31
  C 150.55 421.25 147.94 422.07 144.06 422.07
  Q 123.36 422.09 102.67 422.04
  C 87.66 422.01 92.03 409.87 92.00 400.25
  Q 91.97 390.23 92.64 380.25
  Q 92.72 378.98 92.88 378.35
  Q 93.17 377.26 93.96 378.06
  Q 100.02 384.25 108.45 385.80
  C 110.63 386.20 111.60 389.57 112.55 390.70
  C 115.66 394.39 124.96 393.29 128.25 393.20
  C 132.51 393.09 134.23 389.96 136.33 386.90
  A 2.59 2.56 11.8 0 1 138.02 385.81
  C 144.37 384.69 147.81 381.50 152.81 377.93
  A 0.39 0.38 70.4 0 1 153.41 378.22
  Q 154.77 395.48 155.06 412.50
  C 155.11 415.21 154.46 416.15 152.80 418.31
  Z"
/>
<rect fill="#198754" x="-9.54" y="-5.43" transform="translate(122.94,384.52) rotate(-0.2)" width="19.08" height="10.86" rx="5.12"/>
</svg>
