<?xml version="1.0" encoding="UTF-8" standalone="no"?>
<!DOCTYPE svg PUBLIC "-//W3C//DTD SVG 1.1//EN" "http://www.w3.org/Graphics/SVG/1.1/DTD/svg11.dtd">
<svg xmlns="http://www.w3.org/2000/svg" version="1.1" viewBox="0.00 0.00 1320.00 435.00" width="1320.00" height="435.00">
<path fill="#ffffff" d="
  M 533.45 63.40
  L 570.40 1.26
  A 1.19 1.18 -45.8 0 1 572.42 1.23
  C 583.96 19.53 594.65 38.25 605.67 56.62
  Q 606.13 57.38 605.41 57.91
  L 584.82 72.82
  Q 584.34 73.17 584.01 72.67
  Q 575.15 58.90 568.19 49.09
  C 565.83 45.77 562.34 42.11 557.99 45.48
  Q 546.05 54.71 533.93 63.82
  A 0.33 0.32 -3.4 0 1 533.45 63.40
  Z"
/>
<path fill="#ffffff" d="
  M 168.00 70.54
  L 168.00 292.46
  A 0.54 0.54 0.0 0 1 167.46 293.00
  L 85.54 293.00
  A 0.54 0.54 0.0 0 1 85.00 292.46
  L 85.00 70.54
  A 0.54 0.54 0.0 0 0 84.46 70.00
  L 2.54 70.00
  A 0.54 0.54 0.0 0 1 2.00 69.46
  L 2.00 1.54
  A 0.54 0.54 0.0 0 1 2.54 1.00
  L 249.46 1.00
  A 0.54 0.54 0.0 0 1 250.00 1.54
  L 250.00 69.46
  A 0.54 0.54 0.0 0 1 249.46 70.00
  L 168.54 70.00
  A 0.54 0.54 0.0 0 0 168.00 70.54
  Z"
/>
<path fill="#ffffff" d="
  M 1318.00 293.63
  A 0.37 0.37 0.0 0 1 1317.63 294.00
  L 1237.37 294.00
  A 0.37 0.37 0.0 0 1 1237.00 293.63
  L 1237.00 2.37
  A 0.37 0.37 0.0 0 1 1237.37 2.00
  L 1317.63 2.00
  A 0.37 0.37 0.0 0 1 1318.00 2.37
  L 1318.00 293.63
  Z"
/>
<path fill="#ffffff" d="
  M 517.30 90.56
  C 517.86 89.62 519.12 88.09 520.10 87.36
  Q 540.64 71.93 560.78 56.40
  A 0.87 0.87 0.0 0 1 562.03 56.60
  Q 570.36 68.78 578.39 80.53
  C 580.84 84.12 584.10 84.48 587.51 82.15
  Q 598.85 74.38 609.76 66.02
  Q 610.80 65.22 611.48 66.35
  Q 677.89 178.00 744.55 290.20
  C 745.05 291.05 746.45 292.67 746.12 293.95
  Q 745.85 295.00 744.77 295.00
  L 398.00 295.00
  A 1.38 1.38 0.0 0 1 396.81 292.91
  Q 457.27 191.38 517.30 90.56
  Z
  M 477.19 289.25
  C 478.85 292.09 483.18 291.37 486.17 290.81
  A 1.16 1.11 -78.8 0 0 486.94 290.27
  L 524.51 227.44
  Q 524.78 227.00 524.26 227.00
  L 440.53 227.00
  Q 440.16 227.00 440.35 227.32
  Q 459.04 258.18 477.19 289.25
  Z
  M 567.57 290.95
  L 574.94 291.02
  Q 575.46 291.03 575.73 290.58
  L 613.60 227.34
  Q 613.81 227.00 613.41 227.00
  L 529.59 227.00
  Q 529.20 227.00 529.40 227.33
  L 567.43 290.86
  A 0.18 0.15 73.3 0 0 567.57 290.95
  Z
  M 657.55 291.00
  L 664.08 290.99
  Q 664.51 290.99 664.73 290.62
  L 702.73 227.09
  Q 702.78 227.00 702.68 227.00
  L 618.59 227.00
  Q 618.20 227.00 618.40 227.33
  L 655.98 290.11
  A 1.81 1.80 74.4 0 0 657.55 291.00
  Z"
/>
<path fill="#ffffff" d="
  M 995.93 218.65
  C 981.48 160.63 1003.41 93.24 1069.20 80.18
  C 1120.56 69.98 1178.35 83.09 1197.62 137.87
  C 1205.74 160.95 1204.44 184.98 1203.27 209.01
  A 1.04 1.04 0.0 0 1 1202.23 210.00
  L 1070.77 210.00
  A 0.47 0.46 86.2 0 0 1070.31 210.53
  C 1074.13 239.91 1111.51 238.22 1133.51 235.86
  Q 1158.76 233.14 1183.59 225.68
  A 0.78 0.78 0.0 0 1 1184.59 226.32
  Q 1188.17 251.47 1191.79 276.99
  Q 1192.14 279.51 1191.97 282.07
  Q 1191.93 282.57 1191.46 282.71
  C 1160.78 292.21 1128.51 294.66 1096.57 292.63
  C 1049.60 289.64 1007.96 266.93 995.93 218.65
  Z
  M 1106.36 128.48
  C 1082.77 123.79 1072.73 142.11 1070.26 161.88
  Q 1070.12 163.01 1071.26 163.01
  L 1128.72 162.98
  Q 1130.14 162.98 1129.97 161.58
  C 1128.17 146.62 1123.20 131.83 1106.36 128.48
  Z"
/>
<path fill="#ffffff" d="
  M 317.45 120.93
  C 322.18 116.26 327.13 110.90 331.84 107.04
  Q 363.11 81.40 404.35 80.89
  A 0.64 0.64 0.0 0 1 405.00 81.53
  L 405.00 145.23
  A 0.56 0.56 0.0 0 1 404.45 145.79
  Q 394.22 146.04 383.99 147.68
  C 358.99 151.70 329.12 167.68 322.25 194.11
  Q 320.81 199.66 320.89 212.62
  Q 321.13 251.42 320.96 290.21
  Q 320.96 290.27 321.01 291.29
  C 321.24 295.37 316.23 293.00 314.22 293.00
  Q 277.85 293.00 241.51 293.00
  A 0.51 0.51 0.0 0 1 241.00 292.49
  L 241.00 85.50
  A 0.50 0.50 0.0 0 1 241.50 85.00
  L 316.25 85.00
  A 0.75 0.75 0.0 0 1 317.00 85.75
  L 317.00 120.74
  Q 317.00 121.38 317.45 120.93
  Z"
/>
<path fill="#ffffff" d="
  M 867.99 243.79
  A 0.35 0.35 0.0 0 0 868.67 243.79
  Q 884.18 168.01 899.77 92.50
  Q 900.81 87.47 902.10 82.50
  Q 902.23 82.00 902.75 82.00
  L 981.59 82.00
  Q 983.83 82.00 983.22 84.15
  L 923.63 293.69
  A 1.46 1.45 -82.1 0 1 922.23 294.75
  L 814.77 294.75
  A 1.82 1.82 0.0 0 1 813.02 293.43
  Q 785.05 195.84 757.18 97.77
  Q 754.91 89.79 753.23 82.29
  Q 752.94 81.00 754.26 81.00
  L 833.55 80.99
  Q 834.66 80.99 834.88 82.08
  L 867.99 243.79
  Z"
/>
<path fill="#ffffff" d="
  M 733.55 321.86
  L 730.89 318.03
  A 0.75 0.74 -49.4 0 1 730.84 317.27
  C 734.08 311.12 741.06 307.83 746.51 313.84
  C 748.75 316.31 748.04 319.33 746.39 321.84
  A 0.77 0.76 -60.3 0 1 745.43 322.11
  C 743.75 321.31 741.56 318.60 739.51 319.02
  C 737.85 319.36 736.30 321.26 734.66 322.14
  Q 733.98 322.49 733.55 321.86
  Z"
/>
<path fill="#ffffff" d="
  M 771.52 319.33
  A 2.31 2.30 -43.6 0 0 768.72 319.27
  L 764.59 322.25
  Q 764.08 322.62 763.70 322.11
  C 761.42 318.98 761.28 315.40 764.62 312.89
  C 773.30 306.39 784.29 318.10 775.57 322.08
  A 0.73 0.72 51.9 0 1 774.82 321.98
  L 771.52 319.33
  Z"
/>
<path fill="#ffffff" d="
  M 653.75 433.53
  C 633.47 430.18 619.91 409.24 616.85 389.78
  C 613.35 367.58 620.83 338.24 641.84 327.16
  C 658.82 318.21 678.59 322.86 690.58 337.65
  C 705.43 355.96 707.67 383.33 698.66 404.92
  C 691.09 423.04 674.18 436.90 653.75 433.53
  Z
  M 645.67 412.33
  C 657.34 422.77 671.50 418.28 679.79 406.55
  C 691.09 390.57 691.38 368.67 681.45 352.13
  C 668.55 330.61 645.38 335.83 636.18 356.69
  C 628.03 375.17 630.04 398.35 645.67 412.33
  Z"
/>
<path fill="#ffffff" d="
  M 740.72 357.70
  C 735.62 359.64 732.10 352.81 731.42 348.90
  C 730.25 342.15 729.53 330.94 734.93 325.72
  Q 737.66 323.08 741.00 323.86
  C 750.71 326.11 751.32 353.67 740.72 357.70
  Z"
/>
<path fill="#ffffff" d="
  M 767.19 356.56
  C 760.26 351.33 760.84 338.73 762.92 331.43
  C 763.88 328.11 765.83 324.27 769.59 323.79
  C 785.14 321.77 781.00 366.98 767.19 356.56
  Z"
/>
<path fill="#ffffff" d="
  M 590.18 423.66
  C 574.64 443.55 532.43 436.57 535.19 406.51
  A 0.57 0.56 -87.2 0 1 535.75 406.00
  L 553.26 406.00
  Q 553.77 406.00 553.89 406.49
  C 555.58 413.66 556.71 419.75 566.26 418.98
  C 573.63 418.39 576.78 411.20 576.82 404.18
  Q 577.03 364.33 577.01 324.50
  A 0.50 0.50 0.0 0 1 577.51 324.00
  L 594.25 324.00
  A 0.75 0.74 -0.0 0 1 595.00 324.74
  Q 595.01 362.55 594.99 400.53
  C 594.99 409.56 596.12 416.07 590.18 423.66
  Z"
/>
<path fill="#ffffff" d="
  M 737.88 381.74
  C 726.74 377.13 717.74 369.60 710.05 360.45
  C 706.39 356.08 707.91 341.77 708.30 336.08
  Q 708.38 334.98 708.68 334.37
  A 0.73 0.72 47.5 0 1 710.01 334.43
  C 718.19 355.79 742.53 380.22 767.59 369.25
  C 784.07 362.02 793.24 349.92 800.48 333.96
  A 0.36 0.36 0.0 0 1 801.14 333.96
  Q 802.27 336.54 802.21 339.50
  C 802.14 343.27 802.87 356.58 800.92 359.08
  Q 786.63 377.44 764.56 384.97
  Q 764.00 385.16 764.00 385.75
  L 764.00 433.13
  A 0.88 0.87 0.0 0 1 763.12 434.00
  L 746.75 434.00
  Q 746.00 434.00 746.00 433.25
  L 746.00 385.97
  Q 746.00 385.45 745.53 385.22
  Q 741.70 383.32 737.88 381.74
  Z"
/>
</svg>
