<?xml version="1.0" encoding="UTF-8" standalone="no"?>
<!DOCTYPE svg PUBLIC "-//W3C//DTD SVG 1.1//EN" "http://www.w3.org/Graphics/SVG/1.1/DTD/svg11.dtd">
<svg xmlns="http://www.w3.org/2000/svg" version="1.1" viewBox="0.00 0.00 1320.00 435.00" width="1320.00" height="435.00">
<path fill="#198754" d="
  M 563.46 44.57
  C 560.76 43.24 558.76 44.92 556.16 46.89
  Q 546.15 54.49 536.15 62.15
  Q 534.84 63.16 533.73 63.70
  Q 533.09 64.01 533.45 63.40
  L 570.40 1.25
  A 1.20 1.20 0.0 0 1 572.42 1.18
  Q 576.45 7.06 579.86 12.91
  Q 590.48 31.11 601.18 49.27
  C 602.49 51.50 604.52 54.25 605.97 56.91
  A 0.59 0.58 58.0 0 1 605.80 57.67
  L 584.97 72.69
  Q 584.33 73.15 583.91 72.49
  Q 576.50 60.74 568.24 49.04
  Q 565.95 45.80 563.46 44.57
  Z"
/>
<path fill="#198754" d="
  M 168.00 70.77
  L 168.00 292.23
  A 0.77 0.77 0.0 0 1 167.23 293.00
  L 85.77 293.00
  A 0.77 0.77 0.0 0 1 85.00 292.23
  L 85.00 70.77
  A 0.77 0.77 0.0 0 0 84.23 70.00
  L 2.77 70.00
  A 0.77 0.77 0.0 0 1 2.00 69.23
  L 2.01 1.77
  A 0.77 0.77 0.0 0 1 2.78 1.00
  L 249.23 1.00
  A 0.77 0.77 0.0 0 1 250.00 1.77
  L 250.00 69.23
  A 0.77 0.77 0.0 0 1 249.23 70.00
  L 168.77 70.00
  A 0.77 0.77 0.0 0 0 168.00 70.77
  Z"
/>
<path fill="#198754" d="
  M 1318.00 293.28
  A 0.72 0.72 0.0 0 1 1317.28 294.00
  L 1237.72 294.00
  A 0.72 0.72 0.0 0 1 1237.00 293.28
  L 1237.00 2.72
  A 0.72 0.72 0.0 0 1 1237.72 2.00
  L 1317.28 2.00
  A 0.72 0.72 0.0 0 1 1318.00 2.72
  L 1318.00 293.28
  Z"
/>
<path fill="#198754" d="
  M 578.08 80.18
  C 580.36 83.58 583.74 84.59 587.27 82.29
  C 595.19 77.13 602.40 71.27 610.28 65.79
  Q 611.04 65.25 611.50 66.06
  Q 620.83 82.59 630.89 99.33
  Q 656.67 142.24 682.34 185.22
  Q 692.83 202.78 703.14 220.45
  C 715.37 241.43 728.06 262.14 740.27 283.14
  C 741.69 285.57 744.84 289.68 746.27 293.49
  A 1.12 1.12 0.0 0 1 745.22 295.00
  L 398.43 295.00
  Q 397.07 295.00 396.85 293.65
  Q 396.71 292.78 397.71 291.18
  Q 399.91 287.66 402.03 284.08
  Q 424.95 245.27 448.19 206.65
  C 455.09 195.18 462.80 181.84 470.28 169.53
  C 488.23 139.95 505.24 110.06 517.06 91.08
  Q 518.84 88.21 523.91 84.42
  Q 542.56 70.47 561.07 56.20
  Q 561.50 55.87 561.81 56.31
  Q 569.98 68.06 578.08 80.18
  Z
  M 486.98 290.13
  L 524.52 227.53
  Q 524.85 226.98 524.20 226.98
  L 440.53 226.96
  A 0.49 0.42 68.1 0 0 440.27 227.73
  Q 441.14 228.83 441.88 230.05
  Q 459.33 258.70 476.39 287.59
  Q 477.20 288.97 478.21 290.29
  Q 478.52 290.70 479.03 290.80
  Q 482.65 291.55 486.25 290.67
  A 1.19 1.17 8.0 0 0 486.98 290.13
  Z
  M 529.53 226.97
  Q 529.09 226.97 529.32 227.35
  Q 548.10 258.31 566.60 289.61
  C 567.88 291.78 573.11 291.19 575.15 290.71
  Q 575.71 290.57 576.00 290.08
  L 613.50 227.52
  A 0.36 0.35 -74.5 0 0 613.20 226.98
  L 529.53 226.97
  Z
  M 665.07 289.98
  L 702.40 227.71
  Q 702.82 227.02 702.00 227.02
  L 618.54 226.94
  A 0.45 0.45 0.0 0 0 618.22 227.70
  Q 619.26 228.76 620.10 230.16
  Q 637.95 259.77 655.83 289.92
  A 1.92 1.91 -9.0 0 0 657.05 290.80
  Q 660.64 291.56 664.21 290.63
  Q 664.77 290.49 665.07 289.98
  Z"
/>
<path fill="#198754" d="
  M 1070.38 210.66
  C 1073.45 234.89 1099.42 237.48 1118.75 236.66
  Q 1150.97 235.29 1181.91 226.27
  Q 1183.02 225.95 1183.94 225.75
  A 0.58 0.57 79.7 0 1 1184.63 226.23
  L 1192.35 280.67
  Q 1192.60 282.42 1190.91 282.94
  Q 1163.83 291.27 1135.49 292.57
  Q 1119.00 293.33 1102.49 292.94
  Q 1078.60 292.38 1056.37 284.40
  C 1009.34 267.52 989.11 225.45 992.09 177.21
  C 993.33 157.24 997.73 137.09 1008.79 120.54
  Q 1028.67 90.79 1062.51 81.73
  C 1085.19 75.65 1110.94 75.33 1134.05 80.93
  C 1163.74 88.13 1186.92 108.43 1197.50 137.24
  Q 1203.16 152.65 1203.74 167.49
  C 1204.28 181.16 1204.63 195.60 1202.94 209.15
  A 0.98 0.97 3.3 0 1 1201.97 210.01
  L 1070.97 209.99
  Q 1070.30 209.99 1070.38 210.66
  Z
  M 1106.74 128.73
  C 1084.74 124.30 1072.93 139.82 1070.62 159.49
  Q 1070.48 160.75 1070.13 161.78
  A 0.93 0.92 -80.7 0 0 1071.00 163.00
  L 1128.97 163.00
  A 1.01 1.01 0.0 0 0 1129.97 161.86
  C 1128.05 146.85 1123.74 132.16 1106.74 128.73
  Z"
/>
<path fill="#198754" d="
  M 317.25 120.80
  A 0.30 0.30 0.0 0 0 317.75 120.89
  Q 321.99 116.39 326.58 112.07
  Q 358.66 81.86 403.81 80.83
  Q 404.98 80.81 404.99 81.98
  L 405.00 144.74
  A 1.25 1.24 89.5 0 1 403.78 145.99
  C 386.40 146.28 370.27 149.50 354.55 157.57
  C 339.99 165.04 325.48 179.14 321.95 195.52
  Q 320.94 200.21 320.96 211.05
  Q 321.04 251.63 320.99 291.92
  A 1.80 1.80 0.0 0 1 318.96 293.70
  C 317.30 293.48 315.65 293.01 313.99 293.01
  Q 277.89 292.99 241.74 293.00
  A 0.74 0.74 0.0 0 1 241.00 292.26
  L 241.00 85.75
  Q 241.00 85.00 241.75 85.00
  L 315.96 85.01
  A 1.06 1.06 0.0 0 1 317.02 86.08
  Q 316.94 102.51 317.02 119.50
  Q 317.03 120.23 317.25 120.80
  Z"
/>
<path fill="#198754" d="
  M 868.94 243.73
  C 869.16 242.83 869.11 241.55 869.28 240.74
  Q 884.31 166.85 899.65 93.03
  Q 900.76 87.69 902.16 82.46
  A 0.63 0.62 7.1 0 1 902.77 81.99
  L 982.24 82.01
  A 0.92 0.92 0.0 0 1 983.14 83.14
  Q 980.81 93.42 977.84 103.80
  Q 950.67 198.82 923.64 293.68
  A 1.45 1.44 -82.0 0 1 922.25 294.73
  L 815.24 294.72
  A 2.55 2.54 -8.0 0 1 812.79 292.88
  Q 784.01 192.27 755.67 92.52
  Q 754.16 87.20 753.25 81.89
  A 0.76 0.76 0.0 0 1 754.00 81.00
  L 833.97 81.00
  Q 834.84 81.00 835.03 81.85
  Q 835.23 82.82 835.52 84.21
  Q 851.42 162.44 867.36 240.67
  Q 867.56 241.61 868.42 243.77
  Q 868.73 244.55 868.94 243.73
  Z"
/>
<path fill="#198754" d="
  M 738.26 319.42
  L 735.60 321.70
  Q 734.23 322.87 733.22 321.37
  L 731.46 318.74
  Q 730.45 317.24 731.62 315.86
  C 733.46 313.69 735.59 311.20 738.54 310.92
  C 742.52 310.54 748.80 313.13 747.75 318.28
  Q 747.37 320.11 746.76 321.45
  Q 746.06 323.01 744.74 321.92
  L 741.65 319.38
  A 2.64 2.64 0.0 0 0 738.26 319.42
  Z"
/>
<path fill="#198754" d="
  M 768.27 319.42
  L 765.16 321.97
  A 1.16 1.15 57.8 0 1 763.38 321.56
  C 762.53 319.74 761.41 316.98 762.56 315.08
  C 764.27 312.27 767.84 310.72 770.96 310.85
  C 774.15 310.98 776.60 313.59 778.44 316.04
  C 779.89 317.98 777.58 320.27 776.58 321.68
  A 1.24 1.23 -53.1 0 1 774.79 321.94
  L 771.64 319.41
  A 2.68 2.68 0.0 0 0 768.27 319.42
  Z"
/>
<path fill="#198754" d="
  M 646.47 431.26
  C 607.32 414.92 605.85 346.96 641.97 327.23
  C 657.62 318.68 677.26 322.47 689.17 335.83
  C 704.31 352.82 707.47 380.29 700.22 401.26
  C 692.58 423.35 670.51 441.30 646.47 431.26
  Z
  M 682.95 401.62
  C 688.92 390.11 690.12 376.72 686.40 362.99
  C 682.54 348.75 667.02 331.50 650.73 340.48
  Q 642.91 344.80 638.91 351.43
  C 629.19 367.56 628.59 388.39 639.17 404.85
  C 651.92 424.69 672.89 421.00 682.95 401.62
  Z"
/>
<path fill="#198754" d="
  M 746.83 351.30
  C 745.66 354.89 740.92 359.56 736.78 357.40
  C 732.90 355.39 730.94 349.60 730.75 345.75
  C 730.42 338.97 729.99 326.29 738.06 324.05
  C 745.46 322.00 747.65 332.16 748.10 337.33
  Q 748.79 345.27 746.83 351.30
  Z"
/>
<path fill="#198754" d="
  M 764.44 327.94
  C 769.13 319.17 777.53 325.64 778.65 333.02
  C 779.81 340.63 780.30 349.19 775.45 355.69
  Q 772.66 359.43 768.07 357.18
  C 759.54 352.99 760.71 334.92 764.44 327.94
  Z"
/>
<path fill="#198754" d="
  M 567.39 435.00
  L 563.00 435.00
  C 544.87 432.31 535.87 425.96 534.80 406.77
  A 0.73 0.72 -1.5 0 1 535.53 406.01
  L 553.00 405.99
  A 1.03 1.03 0.0 0 1 554.01 406.83
  C 554.55 409.67 555.05 413.11 556.84 415.32
  C 561.78 421.40 571.54 419.72 575.04 412.75
  C 576.93 408.98 576.98 403.64 576.98 398.73
  Q 577.01 361.65 577.00 324.74
  A 0.74 0.74 0.0 0 1 577.74 324.00
  L 593.99 324.00
  Q 595.00 324.00 595.00 325.01
  Q 594.91 362.25 595.27 400.00
  C 595.39 412.89 595.02 421.58 584.62 428.87
  Q 577.09 434.14 567.39 435.00
  Z"
/>
<path fill="#198754" d="
  M 745.13 384.98
  Q 743.40 383.99 741.04 383.12
  C 728.37 378.44 719.17 370.61 710.34 360.67
  C 708.71 358.82 708.13 357.20 708.00 354.60
  C 707.77 349.91 706.73 337.82 708.91 333.96
  Q 709.22 333.41 709.48 333.98
  C 717.23 351.02 728.67 365.46 746.74 371.01
  Q 756.93 374.14 767.78 369.30
  C 781.63 363.13 790.28 353.60 796.93 340.93
  Q 798.82 337.33 799.89 335.42
  Q 801.60 332.39 801.82 335.86
  C 802.16 341.08 803.54 356.13 800.24 359.99
  C 790.24 371.66 779.54 379.88 764.87 384.78
  A 1.32 1.32 0.0 0 0 763.97 386.03
  L 764.00 433.37
  A 0.63 0.62 -90.0 0 1 763.38 434.00
  L 746.50 434.00
  Q 746.00 434.00 746.00 433.50
  L 746.00 386.48
  Q 746.00 385.47 745.13 384.98
  Z"
/>
</svg>
