<?xml version="1.0" encoding="UTF-8" standalone="no"?>
<!DOCTYPE svg PUBLIC "-//W3C//DTD SVG 1.1//EN" "http://www.w3.org/Graphics/SVG/1.1/DTD/svg11.dtd">
<svg xmlns="http://www.w3.org/2000/svg" version="1.1" viewBox="0.00 0.00 350.00 296.00" width="350.00" height="296.00">
<path fill="#ffffff" d="
  M 172.27 49.26
  C 170.00 45.97 166.47 42.15 162.31 45.32
  Q 151.26 53.75 138.95 63.10
  Q 136.54 64.93 138.09 62.33
  L 174.35 1.34
  A 1.26 1.26 0.0 0 1 176.46 1.27
  Q 177.81 3.21 178.90 5.04
  Q 194.25 30.98 209.87 56.83
  A 0.67 0.67 0.0 0 1 209.69 57.71
  L 188.83 72.82
  Q 188.38 73.14 188.08 72.68
  Q 182.91 64.72 172.27 49.26
  Z"
/>
<path fill="#ffffff" d="
  M 350.00 292.32
  L 350.00 294.97
  L 1.98 294.97
  A 1.36 1.36 0.0 0 1 0.81 292.92
  Q 61.16 191.54 121.13 90.85
  C 122.09 89.25 123.05 88.32 124.46 87.25
  Q 144.58 72.01 164.50 56.57
  Q 165.51 55.79 166.22 56.85
  Q 174.49 69.04 182.73 80.95
  C 186.17 85.94 190.93 82.81 194.76 80.02
  Q 203.65 73.53 213.68 66.13
  Q 214.83 65.27 215.56 66.51
  L 350.00 292.32
  Z
  M 217.79 226.99
  L 133.71 227.00
  Q 133.19 227.00 133.46 227.45
  L 170.99 290.11
  A 1.83 1.82 -15.3 0 0 172.56 291.00
  L 179.02 291.00
  Q 179.53 291.00 179.80 290.56
  Q 198.37 259.28 217.84 227.07
  A 0.06 0.05 15.0 0 0 217.79 226.99
  Z
  M 82.57 290.99
  L 89.29 291.06
  A 2.04 2.03 -74.2 0 0 91.05 290.07
  L 128.61 227.33
  Q 128.81 227.00 128.42 227.00
  L 44.53 227.00
  Q 44.12 227.00 44.33 227.36
  Q 63.54 259.02 82.40 290.89
  A 0.21 0.19 73.5 0 0 82.57 290.99
  Z
  M 261.55 291.00
  L 267.98 290.99
  Q 268.51 290.99 268.78 290.54
  L 306.49 227.51
  Q 306.79 227.00 306.20 227.00
  L 222.59 227.00
  Q 222.20 227.00 222.40 227.33
  L 259.97 290.11
  A 1.83 1.82 74.1 0 0 261.55 291.00
  Z"
/>
</svg>
